<svg width="535" height="304" viewBox="0 0 535 304" fill="none" xmlns="http://www.w3.org/2000/svg">
  <path fill-rule="evenodd" clip-rule="evenodd" d="M159.777 107.894C159.777 107.251 159.777 106.614 159.734 105.971C159.397 97.4958 156.839 89.2586 152.316 82.0843C147.794 74.9101 141.466 69.0508 133.967 65.0938C129.913 62.9678 126.531 59.7548 124.2 55.8148C116.786 43.1907 105.427 33.3567 91.8739 27.829C78.3209 22.3014 63.3264 21.3871 49.2025 25.2271C35.0786 29.0671 22.6097 37.4482 13.7181 49.0781C4.82654 60.708 0.0061776 74.9409 0.000244141 89.5822C0.000244141 90.197 0.000244141 90.8117 0.000244141 91.4192V105.638C0.000244141 119.065 5.33216 131.942 14.823 141.436C24.3139 150.93 37.1863 156.264 50.6084 156.264H113.182C119.298 156.276 125.356 155.082 131.009 152.748C136.663 150.415 141.801 146.989 146.129 142.667C150.457 138.345 153.891 133.211 156.233 127.559C158.575 121.908 159.779 115.849 159.777 109.731C159.777 109.124 159.777 108.487 159.777 107.894Z" fill="#FFE4E4"/>
  <path fill-rule="evenodd" clip-rule="evenodd" d="M59.4142 137.207C59.4142 137.207 53.7605 146.659 53.2183 148.93C52.445 151.432 51.5351 153.89 50.4927 156.292H72.1313L78.1175 150.297V137.207H59.4142Z" fill="#231F20"/>
  <path fill-rule="evenodd" clip-rule="evenodd" d="M94.3411 137.207L102.475 156.292H79.2599C79.2599 156.292 64.0774 150.109 63.0146 137.207H94.3411Z" fill="#231F20"/>
  <path d="M138.16 64.1054L123.529 74.7585C123.251 74.9606 123.19 75.3497 123.392 75.6274C123.594 75.9051 123.983 75.9664 124.261 75.7642L138.891 65.1112C139.169 64.909 139.23 64.52 139.028 64.2423C138.826 63.9646 138.437 63.9033 138.16 64.1054Z" fill="#231F20"/>
  <path fill-rule="evenodd" clip-rule="evenodd" d="M66.6875 56.1689C61.4021 63.848 57.2959 72.2754 54.5054 81.1709L60.4988 84.6785L66.6875 56.1689Z" fill="#FFBE6D"/>
  <path opacity="0.2" fill-rule="evenodd" clip-rule="evenodd" d="M61.1782 68.3916C61.1276 68.5941 58.1851 81.576 58.1851 81.576L61.3011 81.1783L61.1782 68.3916Z" fill="#231F20"/>
  <path fill-rule="evenodd" clip-rule="evenodd" d="M33.9799 85.9371C33.9799 85.9371 64.5328 72.7889 109.017 86.1541C109.017 86.1541 106.125 121.643 102.547 123.451C98.968 125.259 96.3364 122.098 80.8575 123.567C65.3786 125.035 46.4295 129.909 42.5978 123.053C38.766 116.197 33.8353 88.3672 33.9799 85.9371Z" fill="#83CFC8"/>
  <path opacity="0.2" fill-rule="evenodd" clip-rule="evenodd" d="M106.025 85.2935C101.918 92.0773 94.2184 110.758 90.7988 113.666C86.6995 117.137 49.8062 125.83 45.2009 114.635C42.2722 107.816 38.9456 101.175 35.2383 94.746C36.9228 104.228 40.0316 118.453 42.6198 123.089C46.4516 129.945 65.4007 125.071 80.8796 123.603C96.3584 122.135 98.9539 125.295 102.569 123.487C106.184 121.679 109.039 86.1903 109.039 86.1903C108.02 85.8503 107.001 85.5683 106.025 85.2935Z" fill="#231F20"/>
  <path fill-rule="evenodd" clip-rule="evenodd" d="M82.5782 46.9627C82.5782 46.9627 81.6962 54.412 83.612 58.7296L85.6364 62.3458C85.6364 62.3458 69.6803 57.3772 68.6826 57.1385C67.6849 56.8999 67.0776 55.5619 67.0776 55.5619C67.0776 55.5619 71.4589 41.1408 71.9577 35.044C72.4566 28.9472 83.0843 44.0626 82.5782 46.9627Z" fill="#FFBE6D"/>
  <path fill-rule="evenodd" clip-rule="evenodd" d="M93.9868 24.0291C94.6633 27.5521 94.4142 31.1904 93.2638 34.5883L89.1646 47.9752C89.1646 47.9752 86.2365 49.0022 81.1179 45.8055C75.9992 42.6088 70.1287 37.1846 69.5648 32.3029C69.0009 27.4211 69.76 13.6147 80.7058 14.996C91.6516 16.3774 93.9868 24.0291 93.9868 24.0291Z" fill="#FFBE6D"/>
  <path fill-rule="evenodd" clip-rule="evenodd" d="M65.6966 56.3644C65.6966 56.3644 65.3134 54.1948 69.109 55.0554C72.9046 55.916 86.1351 59.2067 87.3641 62.0128C89.3588 66.6534 91.6805 71.1463 94.3119 75.4576C97.1315 79.797 96.3796 85.0838 92.5695 89.9222L92.6563 109.876L95.3819 139.015C95.3819 139.015 94.6589 141.806 84.8626 141.344C75.0663 140.881 61.3298 141.445 58.5103 136.028L60.1731 112.104C60.6069 105.775 58.5681 79.7825 61.0334 69.0137C63.4988 58.2448 65.6966 56.3644 65.6966 56.3644Z" fill="#3B7BA3"/>
  <path fill-rule="evenodd" clip-rule="evenodd" d="M95.5051 27.6159C95.5051 27.6159 92.9169 32.1867 84.3713 30.0243C75.8258 27.8618 77.6332 31.1887 78.1032 34.2479C78.5008 36.8587 83.5688 46.9984 85.0292 52.6106L86.0703 55.8796L63.7883 48.3074C63.7883 48.3074 60.9398 38.4788 66.1813 22.8788C71.4229 7.27878 88.2176 15.4151 91.3914 18.5394C94.5653 21.6638 95.5051 27.6159 95.5051 27.6159Z" fill="black"/>
  <path fill-rule="evenodd" clip-rule="evenodd" d="M116.471 82.8199C118.343 80.9046 119.932 78.7324 121.192 76.3687C122.681 73.1792 122.305 71.4218 125.761 71.4724C125.761 71.4724 129.513 71.1904 127.272 72.362C125.031 73.5336 124.763 73.2443 124.25 74.5751C124.25 74.5751 129.506 72.0076 129.723 71.9498C129.94 71.8919 130.099 71.3133 130.446 71.147C130.793 70.9806 131.711 72.0293 130.8 72.8249C129.889 73.6204 128.827 74.4521 128.827 74.4521C128.827 74.4521 130.605 76.2602 130.041 77.9308C129.477 79.6015 126.318 81.7495 124.98 83.1453C123.643 84.5411 120.642 87.2388 120.642 87.2388L116.471 82.8199Z" fill="#FFBE6D"/>
  <path d="M90.6941 36.9495C90.9314 36.395 90.7309 35.7772 90.2463 35.5696C89.7616 35.362 89.1763 35.6432 88.939 36.1977C88.7017 36.7522 88.9022 37.3699 89.3868 37.5775C89.8715 37.7851 90.4568 37.5039 90.6941 36.9495Z" fill="black"/>
  <path d="M91.7022 33.4816C91.0788 33.2873 90.4217 33.2256 89.773 33.3003C89.1244 33.375 88.4985 33.5846 87.9355 33.9155" stroke="black" stroke-linecap="round" stroke-linejoin="round"/>
  <path d="M88.0571 39.8713C88.3096 39.0213 87.5773 38.0537 86.4214 37.7101C85.2655 37.3665 84.1237 37.777 83.8713 38.627C83.6188 39.477 84.3511 40.4446 85.507 40.7882C86.6629 41.1318 87.8046 40.7213 88.0571 39.8713Z" fill="black" fill-opacity="0.15"/>
  <path fill-rule="evenodd" clip-rule="evenodd" d="M92.3174 37.5967L92.6501 42.2615H90.7986H90.5527L92.3174 37.5967Z" fill="#FFBE6D"/>
  <path opacity="0.2" fill-rule="evenodd" clip-rule="evenodd" d="M65.068 71.1255C65.068 71.1255 62.6027 76.0362 64.7571 85.59C66.9116 95.1439 77.8719 118.07 81.4939 120.768C85.116 123.465 89.6129 125.584 93.8423 122.525L92.982 113.55L65.068 71.1255Z" fill="#231F20"/>
  <path fill-rule="evenodd" clip-rule="evenodd" d="M69.1598 66.3451C69.1598 66.3451 77.6186 64.3707 82.983 80.2817C88.3475 96.1927 93.1842 100.293 93.1842 100.293L116.681 82.596L120.701 87.3621L97.0232 114.577C97.0232 114.577 88.7741 120.363 82.5637 112.234C76.3534 104.105 67.4391 82.531 67.4391 82.531C67.4391 82.531 60.007 70.1566 69.1598 66.3451Z" fill="#FFBE6C"/>
  <path d="M93.1843 100.279L87.9355 104.04" stroke="white" stroke-miterlimit="10"/>
  <path fill-rule="evenodd" clip-rule="evenodd" d="M86.3594 38.3345C86.3594 38.3345 88.297 42.5075 84.4219 43.8599C85.3494 45.3091 86.371 46.6959 87.4801 48.0112C89.1429 49.9423 93.0614 42.4641 93.1192 41.6324C93.0607 40.6684 92.9008 39.7133 92.6421 38.7829L86.3594 38.3345Z" fill="#B1D9F4"/>
  <path fill-rule="evenodd" clip-rule="evenodd" d="M30.6037 121.361C20.1928 113.709 13.0137 111.583 13.0137 98.1089C13.0137 84.6352 8.0252 80.0861 6.50696 74.9657C5.50203 71.581 7.22993 62.5479 8.55297 56.8271C2.91896 66.8221 -0.027867 78.1077 0.000198612 89.5821C0.000198612 90.1968 0.000198612 90.8116 0.000198612 91.4191V105.638C0.000817988 117.008 3.82425 128.047 10.8556 136.98C17.8869 145.914 27.7174 152.221 38.766 154.889C38.766 154.889 41.0072 129.012 30.6037 121.361Z" fill="#83CFC8"/>
  <path d="M30.3155 149.762C30.3155 149.762 27.5537 134.032 18.4876 128.926C9.42156 123.82 2.21352 108.321 3.08109 102.167C3.94865 96.0119 3.00879 86.3496 3.00879 86.3496" stroke="white" stroke-width="2" stroke-miterlimit="10" stroke-linecap="round"/>
  <path d="M23.2583 133.128L28.7674 125.997" stroke="white" stroke-width="2" stroke-miterlimit="10" stroke-linecap="round"/>
  <path d="M11.4886 122.677C11.4886 122.677 13.1882 111.966 10.1724 105.211" stroke="white" stroke-width="2" stroke-miterlimit="10" stroke-linecap="round"/>
  <path d="M16.9897 128.014C16.9897 128.014 11.3143 128.94 9.55029 127.074" stroke="white" stroke-width="2" stroke-miterlimit="10" stroke-linecap="round"/>
  <path d="M90.5527 19.1543C90.5527 19.1543 95.0279 25.5838 87.2415 26.0611C79.4551 26.5384 75.2618 25.8658 76.3969 32.3821C77.5319 38.8984 78.7321 50.0867 78.7321 50.0867" stroke="white" stroke-width="0.4" stroke-miterlimit="10" stroke-linecap="round"/>
  <path d="M92.6493 21.5049C92.6493 21.5049 95.7002 26.2203 91.7022 27.7319C89.1712 28.66 86.5142 29.1989 83.8218 29.3302" stroke="white" stroke-width="0.4" stroke-miterlimit="10" stroke-linecap="round"/>
  <path d="M83.2072 22.8793C83.2072 22.8793 71.4878 21.9246 71.8637 27.0812C72.2397 32.2378 70.8516 47.252 70.8516 47.252" stroke="white" stroke-width="0.4" stroke-miterlimit="10" stroke-linecap="round"/>
  <path d="M66.687 48.1336C66.687 48.1336 66.5135 35.3759 67.0775 30.4507C67.6414 25.5256 70.5333 18.0474 74.0903 17.1289" stroke="white" stroke-width="0.4" stroke-miterlimit="10" stroke-linecap="round"/>
  <path d="M110.615 169.513L110.478 169.462C110.411 169.429 110.352 169.383 110.303 169.327C110.254 169.271 110.217 169.206 110.193 169.135C110.17 169.065 110.16 168.99 110.166 168.916C110.171 168.842 110.191 168.769 110.225 168.703C110.644 167.871 152.75 84.9461 186.607 61.6654C186.725 61.6133 186.858 61.6035 186.983 61.6377C187.107 61.6718 187.217 61.7478 187.292 61.8529C187.367 61.958 187.404 62.0858 187.397 62.2149C187.389 62.3441 187.337 62.4667 187.25 62.5622C153.632 85.7127 111.656 168.378 111.237 169.238C111.178 169.346 111.085 169.432 110.973 169.482C110.86 169.531 110.735 169.542 110.615 169.513Z" fill="#639E9A"/>
  <path fill-rule="evenodd" clip-rule="evenodd" d="M139.766 154.116C139.766 154.116 123.969 141.871 116.464 157.247L139.766 154.116Z" fill="#639E9A"/>
  <path fill-rule="evenodd" clip-rule="evenodd" d="M139.766 154.116C139.766 154.116 127.764 170.099 116.464 157.247L139.766 154.116Z" fill="#639E9A"/>
  <path fill-rule="evenodd" clip-rule="evenodd" d="M149.533 142.747C149.533 142.747 136.628 127.487 126.094 140.967L149.533 142.747Z" fill="#639E9A"/>
  <path fill-rule="evenodd" clip-rule="evenodd" d="M149.533 142.746C149.533 142.746 134.473 155.887 126.094 140.967L149.533 142.746Z" fill="#639E9A"/>
  <path fill-rule="evenodd" clip-rule="evenodd" d="M158.534 123.003C158.534 123.003 142.629 110.896 135.261 126.344L158.534 123.003Z" fill="#639E9A"/>
  <path fill-rule="evenodd" clip-rule="evenodd" d="M158.534 123.002C158.534 123.002 146.677 139.094 135.261 126.344L158.534 123.002Z" fill="#639E9A"/>
  <path fill-rule="evenodd" clip-rule="evenodd" d="M169.407 109.558C169.407 109.558 155.989 94.7462 145.918 108.582L169.407 109.558Z" fill="#639E9A"/>
  <path fill-rule="evenodd" clip-rule="evenodd" d="M169.407 109.558C169.407 109.558 154.803 123.205 145.918 108.582L169.407 109.558Z" fill="#639E9A"/>
  <path fill-rule="evenodd" clip-rule="evenodd" d="M179.963 95.0281C179.963 95.0281 166.544 80.2164 156.473 94.0517L179.963 95.0281Z" fill="#639E9A"/>
  <path fill-rule="evenodd" clip-rule="evenodd" d="M179.963 95.0281C179.963 95.0281 165.358 108.675 156.473 94.0518L179.963 95.0281Z" fill="#639E9A"/>
  <path fill-rule="evenodd" clip-rule="evenodd" d="M189.708 74.5392C189.708 74.5392 172.039 65.1951 167.296 81.6413L189.708 74.5392Z" fill="#639E9A"/>
  <path fill-rule="evenodd" clip-rule="evenodd" d="M189.708 74.5391C189.708 74.5391 180.635 92.3521 167.296 81.6411L189.708 74.5391Z" fill="#639E9A"/>
  <path fill-rule="evenodd" clip-rule="evenodd" d="M182.609 42.0303C182.609 42.0303 168.568 56.2634 182.941 65.5424L182.609 42.0303Z" fill="#639E9A"/>
  <path fill-rule="evenodd" clip-rule="evenodd" d="M182.609 42.0303C182.609 42.0303 197.069 55.8511 182.942 65.5424L182.609 42.0303Z" fill="#639E9A"/>
  <path fill-rule="evenodd" clip-rule="evenodd" d="M163.602 59.9878C163.602 59.9878 150.118 74.7416 164.831 83.471L163.602 59.9878Z" fill="#639E9A"/>
  <path fill-rule="evenodd" clip-rule="evenodd" d="M163.602 59.9878C163.602 59.9878 178.575 73.2518 164.838 83.471L163.602 59.9878Z" fill="#639E9A"/>
  <path fill-rule="evenodd" clip-rule="evenodd" d="M134.206 92.7354C134.206 92.7354 125.255 110.606 141.79 114.996L134.206 92.7354Z" fill="#639E9A"/>
  <path fill-rule="evenodd" clip-rule="evenodd" d="M134.206 92.7354C134.206 92.7354 152.208 101.414 141.79 114.996L134.206 92.7354Z" fill="#639E9A"/>
  <path fill-rule="evenodd" clip-rule="evenodd" d="M146.38 75.002C146.38 75.002 137.43 92.8729 153.993 97.2629L146.38 75.002Z" fill="#639E9A"/>
  <path fill-rule="evenodd" clip-rule="evenodd" d="M146.381 75.002C146.381 75.002 164.383 83.6807 153.965 97.2629L146.381 75.002Z" fill="#639E9A"/>
  <path fill-rule="evenodd" clip-rule="evenodd" d="M111.338 131.341C111.338 131.341 102.387 149.212 118.922 153.602L111.338 131.341Z" fill="#639E9A"/>
  <path fill-rule="evenodd" clip-rule="evenodd" d="M111.338 131.341C111.338 131.341 129.34 140.02 118.922 153.602L111.338 131.341Z" fill="#639E9A"/>
  <path d="M135.919 206.694L135.782 206.644C135.715 206.611 135.656 206.565 135.607 206.509C135.558 206.453 135.521 206.387 135.497 206.317C135.474 206.246 135.464 206.172 135.47 206.097C135.475 206.023 135.495 205.951 135.529 205.884C135.955 205.053 178.054 122.128 211.911 98.8468C212.034 98.7615 212.187 98.7288 212.335 98.7559C212.483 98.783 212.614 98.8678 212.699 98.9915C212.784 99.1152 212.817 99.2678 212.79 99.4156C212.763 99.5634 212.678 99.6944 212.554 99.7798C178.929 122.923 136.96 205.595 136.541 206.434C136.478 206.538 136.384 206.619 136.272 206.666C136.161 206.713 136.037 206.723 135.919 206.694Z" fill="#639E9A"/>
  <path fill-rule="evenodd" clip-rule="evenodd" d="M165.084 191.297C165.084 191.297 149.287 179.052 141.783 194.435L165.084 191.297Z" fill="#639E9A"/>
  <path fill-rule="evenodd" clip-rule="evenodd" d="M165.084 191.297C165.084 191.297 153.083 207.28 141.783 194.436L165.084 191.297Z" fill="#639E9A"/>
  <path fill-rule="evenodd" clip-rule="evenodd" d="M174.844 179.928C174.844 179.928 161.939 164.668 151.405 178.149L174.844 179.928Z" fill="#639E9A"/>
  <path fill-rule="evenodd" clip-rule="evenodd" d="M174.844 179.928C174.844 179.928 159.777 193.105 151.405 178.148L174.844 179.928Z" fill="#639E9A"/>
  <path fill-rule="evenodd" clip-rule="evenodd" d="M183.845 160.183C183.845 160.183 167.94 148.076 160.573 163.525L183.845 160.183Z" fill="#639E9A"/>
  <path fill-rule="evenodd" clip-rule="evenodd" d="M183.845 160.184C183.845 160.184 171.989 176.275 160.573 163.525L183.845 160.184Z" fill="#639E9A"/>
  <path fill-rule="evenodd" clip-rule="evenodd" d="M194.719 146.739C194.719 146.739 181.3 131.927 171.229 145.762L194.719 146.739Z" fill="#639E9A"/>
  <path fill-rule="evenodd" clip-rule="evenodd" d="M194.719 146.739C194.719 146.739 180.122 160.386 171.229 145.763L194.719 146.739Z" fill="#639E9A"/>
  <path fill-rule="evenodd" clip-rule="evenodd" d="M205.274 132.209C205.274 132.209 191.856 117.398 181.785 131.233L205.274 132.209Z" fill="#639E9A"/>
  <path fill-rule="evenodd" clip-rule="evenodd" d="M205.274 132.209C205.274 132.209 190.67 145.857 181.785 131.233L205.274 132.209Z" fill="#639E9A"/>
  <path fill-rule="evenodd" clip-rule="evenodd" d="M215.02 111.72C215.02 111.72 197.351 102.376 192.608 118.822L215.02 111.72Z" fill="#639E9A"/>
  <path fill-rule="evenodd" clip-rule="evenodd" d="M215.02 111.72C215.02 111.72 205.954 129.533 192.608 118.822L215.02 111.72Z" fill="#639E9A"/>
  <path fill-rule="evenodd" clip-rule="evenodd" d="M207.92 79.2109C207.92 79.2109 193.887 93.444 208.26 102.723L207.92 79.2109Z" fill="#639E9A"/>
  <path fill-rule="evenodd" clip-rule="evenodd" d="M207.92 79.2109C207.92 79.2109 222.379 93.0318 208.26 102.723L207.92 79.2109Z" fill="#639E9A"/>
  <path fill-rule="evenodd" clip-rule="evenodd" d="M188.913 97.1689C188.913 97.1689 175.43 111.923 190.142 120.652L188.913 97.1689Z" fill="#639E9A"/>
  <path fill-rule="evenodd" clip-rule="evenodd" d="M188.913 97.1689C188.913 97.1689 203.879 110.433 190.142 120.652L188.913 97.1689Z" fill="#639E9A"/>
  <path fill-rule="evenodd" clip-rule="evenodd" d="M159.524 129.917C159.524 129.917 150.566 147.787 167.101 152.177L159.524 129.917Z" fill="#639E9A"/>
  <path fill-rule="evenodd" clip-rule="evenodd" d="M159.524 129.917C159.524 129.917 177.519 138.595 167.101 152.177L159.524 129.917Z" fill="#639E9A"/>
  <path fill-rule="evenodd" clip-rule="evenodd" d="M171.699 112.183C171.699 112.183 162.742 130.054 179.298 134.444L171.699 112.183Z" fill="#639E9A"/>
  <path fill-rule="evenodd" clip-rule="evenodd" d="M171.699 112.183C171.699 112.183 189.694 120.862 179.276 134.444L171.699 112.183Z" fill="#639E9A"/>
  <path fill-rule="evenodd" clip-rule="evenodd" d="M136.642 168.515C136.642 168.515 127.692 186.386 144.226 190.783L136.642 168.515Z" fill="#639E9A"/>
  <path fill-rule="evenodd" clip-rule="evenodd" d="M136.642 168.515C136.642 168.515 154.644 177.194 144.226 190.783L136.642 168.515Z" fill="#639E9A"/>
  <path d="M109.574 172.435C109.518 172.408 109.467 172.371 109.422 172.327C109.281 172.198 109.196 172.018 109.186 171.827C109.177 171.636 109.243 171.449 109.371 171.307C110.174 170.417 190.518 82.3501 240.316 65.1012C240.407 65.0662 240.504 65.0499 240.601 65.0531C240.698 65.0564 240.794 65.0793 240.882 65.1203C240.97 65.1614 241.049 65.2197 241.114 65.292C241.179 65.3642 241.229 65.4488 241.26 65.5408C241.292 65.6327 241.305 65.73 241.298 65.827C241.291 65.924 241.264 66.0186 241.22 66.1051C241.176 66.1917 241.115 66.2684 241.04 66.3308C240.966 66.3932 240.879 66.4398 240.786 66.4681C191.335 83.5868 111.244 171.408 110.441 172.276C110.335 172.395 110.192 172.475 110.035 172.503C109.878 172.532 109.716 172.508 109.574 172.435Z" fill="#83CFC8"/>
  <path fill-rule="evenodd" clip-rule="evenodd" d="M150.848 163.373C150.848 163.373 135.507 142.84 120.982 159.279L150.848 163.373Z" fill="#83CFC8"/>
  <path fill-rule="evenodd" clip-rule="evenodd" d="M150.848 163.373C150.848 163.373 130.562 179.024 120.982 159.28L150.848 163.373Z" fill="#83CFC8"/>
  <path fill-rule="evenodd" clip-rule="evenodd" d="M166.797 152.662C166.797 152.662 156.061 129.389 138.435 142.479L166.797 152.662Z" fill="#83CFC8"/>
  <path fill-rule="evenodd" clip-rule="evenodd" d="M166.797 152.662C166.797 152.662 143.662 163.756 138.435 142.457L166.797 152.662Z" fill="#83CFC8"/>
  <path fill-rule="evenodd" clip-rule="evenodd" d="M184.662 131.341C184.662 131.341 169.147 110.946 154.767 127.515L184.662 131.341Z" fill="#83CFC8"/>
  <path fill-rule="evenodd" clip-rule="evenodd" d="M184.662 131.341C184.662 131.341 164.513 147.172 154.767 127.515L184.662 131.341Z" fill="#83CFC8"/>
  <path fill-rule="evenodd" clip-rule="evenodd" d="M202.686 118.446C202.686 118.446 191.161 95.5558 173.998 109.21L202.686 118.446Z" fill="#83CFC8"/>
  <path fill-rule="evenodd" clip-rule="evenodd" d="M202.686 118.446C202.686 118.446 180.02 130.321 173.998 109.21L202.686 118.446Z" fill="#83CFC8"/>
  <path fill-rule="evenodd" clip-rule="evenodd" d="M220.688 104.097C220.688 104.097 209.164 81.2072 192 94.8617L220.688 104.097Z" fill="#83CFC8"/>
  <path fill-rule="evenodd" clip-rule="evenodd" d="M220.688 104.097C220.688 104.097 197.987 115.973 192 94.8618L220.688 104.097Z" fill="#83CFC8"/>
  <path fill-rule="evenodd" clip-rule="evenodd" d="M239.723 82.1037C239.723 82.1037 221.078 64.5293 209.604 83.2247L239.723 82.1037Z" fill="#83CFC8"/>
  <path fill-rule="evenodd" clip-rule="evenodd" d="M239.723 82.104C239.723 82.104 222.437 101.024 209.604 83.225L239.723 82.104Z" fill="#83CFC8"/>
  <path fill-rule="evenodd" clip-rule="evenodd" d="M212.439 55.207C212.439 55.207 190.75 68.8326 205.932 84.6496L212.439 55.207Z" fill="#83CFC8"/>
  <path fill-rule="evenodd" clip-rule="evenodd" d="M212.439 55.207C212.439 55.207 226.385 76.7086 205.932 84.6496L212.439 55.207Z" fill="#83CFC8"/>
  <path fill-rule="evenodd" clip-rule="evenodd" d="M164.939 85.626C164.939 85.626 147.768 104.647 166.703 115.727L164.939 85.626Z" fill="#83CFC8"/>
  <path fill-rule="evenodd" clip-rule="evenodd" d="M164.939 85.626C164.939 85.626 184.214 102.506 166.703 115.727L164.939 85.626Z" fill="#83CFC8"/>
  <path fill-rule="evenodd" clip-rule="evenodd" d="M186.036 67.8711C186.036 67.8711 168.872 86.8992 187.8 97.9718L186.036 67.8711Z" fill="#83CFC8"/>
  <path fill-rule="evenodd" clip-rule="evenodd" d="M186.035 67.8711C186.035 67.8711 205.31 84.7584 187.799 97.9718L186.035 67.8711Z" fill="#83CFC8"/>
  <path fill-rule="evenodd" clip-rule="evenodd" d="M123.462 125.512C123.462 125.512 106.292 144.533 125.226 155.605L123.462 125.512Z" fill="#83CFC8"/>
  <path fill-rule="evenodd" clip-rule="evenodd" d="M123.462 125.512C123.462 125.512 142.737 142.392 125.226 155.605L123.462 125.512Z" fill="#83CFC8"/>
  <path fill-rule="evenodd" clip-rule="evenodd" d="M247.257 51.0489C247.257 51.0489 221.65 50.2027 225.416 71.82L247.257 51.0489Z" fill="#83CFC8"/>
  <path fill-rule="evenodd" clip-rule="evenodd" d="M247.257 51.0488C247.257 51.0488 246.824 76.6655 225.438 71.8199L247.257 51.0488Z" fill="#83CFC8"/>
  <path fill-rule="evenodd" clip-rule="evenodd" d="M535 106.759C534.672 88.213 528.768 70.1958 518.057 55.0547C507.346 39.9136 492.324 28.3507 474.95 21.8723C457.575 15.3939 438.653 14.3005 420.648 18.7346C402.643 23.1686 386.391 32.9244 374.008 46.7311C368.498 52.9273 361.427 57.5325 353.534 60.0674C338.939 64.6855 326.194 73.8357 317.15 86.1902C308.106 98.5448 303.232 113.461 303.236 128.774C303.236 129.114 303.236 129.461 303.236 129.801C303.236 148.629 310.713 166.686 324.022 180C337.331 193.313 355.382 200.793 374.203 200.793H465.031C483.594 200.785 501.394 193.401 514.516 180.266C527.637 167.13 535.006 149.318 535 130.748V106.759Z" fill="#FFE4E4"/>
  <path d="M367.476 52.8427L359.733 54.6266C358.706 54.8633 358.065 55.8882 358.301 56.9158L362.746 76.2196C362.982 77.2472 364.007 77.8883 365.034 77.6517L372.777 75.8678C373.804 75.6311 374.445 74.6062 374.209 73.5786L369.764 54.2748C369.528 53.2472 368.503 52.6061 367.476 52.8427Z" fill="black"/>
  <path d="M492.583 92.5114V116.689H497.218V92.5114L494.398 89.1411L492.583 92.5114Z" fill="#58BAD1"/>
  <path d="M492.584 92.5112H479.136V116.689H492.584V92.5112Z" fill="#95D6E3"/>
  <path d="M479.136 92.5114L481.464 89.1411H494.398L492.584 92.5114H479.136Z" fill="#B0DFE4"/>
  <path d="M494.398 87.8462H481.464V89.1335H494.398V87.8462Z" fill="#72C0D2"/>
  <path d="M483.763 97.328V97.3931V97.5233V97.6679H483.582H483.416H483.17H483.019V97.5088V97.3642V96.9736V96.7133V96.6409V96.3878V96.0117V96.0479L482.975 96.1058L482.802 96.301L482.549 96.6048L482.382 96.8145H482.339H482.288L482.245 96.7784L482.035 96.5325L481.884 96.3227L481.84 96.2721L481.623 96.0334L481.565 95.9828V96.0262V96.2866V96.3589V96.6192V96.6843V96.9447V97.6679H481.457H481.161H480.958H480.864H480.813V97.6245V97.5305V97.4003V96.7567V96.5397V95.6067V95.3825V95.3174V95.1005V95.0354V94.8763V94.7461H480.973H481.067H480.777H480.907H481.254H481.298L481.341 94.7895L481.486 94.9558L481.529 95.0065L481.645 95.18L481.688 95.2307L481.826 95.397L481.869 95.4549L481.999 95.614V95.6646H482.043H482.079L482.122 95.6212L482.245 95.4549L482.288 95.397L482.419 95.2307L482.462 95.18L482.606 95.0137L482.65 94.9631L482.758 94.8256V94.7823H482.794H482.838H482.888H483.113H483.373H483.496H483.648V94.869V95.0571V95.9828V96.207V96.2721V96.4963V96.5614V96.7784V96.8507V97.0677V97.3569L483.763 97.328Z" fill="white"/>
  <path d="M485.231 97.0459V97.111V97.3352V97.6968H484.703H484.494V97.0676V96.8434V94.746V94.7026H485.296V94.746V94.8545V97.0242L485.231 97.0459Z" fill="white"/>
  <path d="M488.124 97.5088V97.639V97.6896H487.957H487.495H487.184H486.808H486.569H485.838V97.5739V97.4148V97.3497V97.1327V96.1925V95.6863V94.7461H485.976H486.186H486.583V96.0262V96.2721V96.3372V96.8868V96.9736H487.632H487.777H488.008H488.059V97.4727L488.124 97.5088Z" fill="white"/>
  <path d="M491.305 97.639V97.6752H491.247H491.023H490.299L490.155 97.5088V97.4654L490.025 97.2774V97.234L489.865 97.0677L489.822 97.0243L489.685 96.8579V96.8145V96.7784V97.1183V97.3425V97.6752H489.374H489.186H489.121H488.911H488.875V97.3425V97.1183V96.7567V96.5325V94.7461H488.73H488.86H488.925H489.113H489.186H489.374H489.453V94.7823V94.8763V95.0137V95.6357H489.497L489.627 95.4549L489.851 95.1873L489.981 95.0065L490.025 94.9558L490.169 94.7895H490.213H490.473H490.726H491.153H491.117L490.958 94.9631L490.921 95.0137L490.769 95.2017V95.2524L490.603 95.4332L490.56 95.4838L490.408 95.6646L490.364 95.7152L490.22 95.9033L490.169 95.9539L490.068 96.0479L490.025 96.0985V96.1347L490.176 96.3444L490.227 96.395L490.408 96.5759L490.451 96.6265L490.61 96.8218L490.654 96.8724L490.827 97.0677V97.1183L491.008 97.3063L491.052 97.3497L491.305 97.639Z" fill="white"/>
  <path d="M473.772 95.8381C473.772 95.8381 475.008 97.4148 474.885 98.5575C474.885 98.5575 474.466 99.6134 475.203 101.45C475.203 101.45 479.151 111.416 469.694 115.575C469.694 115.575 469.268 115.626 469.355 116.161C469.339 116.231 469.338 116.304 469.352 116.374C469.367 116.445 469.395 116.511 469.437 116.57C469.478 116.629 469.532 116.678 469.594 116.714C469.655 116.751 469.724 116.774 469.796 116.783C469.796 116.783 478.471 117.506 481.645 109.984C481.645 109.984 484.638 102.101 476.44 97.5811C475.973 96.8489 475.567 96.0797 475.225 95.2812L473.772 95.8381Z" fill="#FDC250"/>
  <path d="M470.331 116.84C470.329 116.653 470.31 116.467 470.273 116.284C470.223 115.951 470.215 115.647 469.926 115.502L469.695 115.611C469.695 115.611 469.268 115.662 469.355 116.197C469.339 116.267 469.338 116.34 469.352 116.41C469.367 116.48 469.395 116.547 469.437 116.606C469.479 116.664 469.532 116.714 469.594 116.75C469.656 116.787 469.724 116.81 469.796 116.819C469.796 116.819 469.991 116.84 470.331 116.84Z" fill="#4B281E"/>
  <path opacity="0.5" d="M473.671 115.061C474.816 114.262 475.827 113.286 476.664 112.168C476.973 111.777 477.242 111.355 477.467 110.91C478.12 109.494 478.466 107.955 478.481 106.396C478.496 104.836 478.18 103.291 477.553 101.862C477.213 100.912 476.738 100.016 476.144 99.201C475.782 98.7526 475.066 98.3331 475.081 99.2589C475.179 100.002 475.369 100.731 475.645 101.429C475.869 102.231 476.209 103.215 476.368 104.032C476.807 105.847 476.732 107.747 476.151 109.521C475.583 111.308 474.508 112.892 473.057 114.078C472.399 114.555 471.654 114.902 471.011 115.401C470.837 115.546 470.504 115.748 470.454 115.98C470.273 116.869 472.203 115.922 472.449 115.763C472.695 115.604 473.36 115.278 473.671 115.061Z" fill="#FFDC52"/>
  <path d="M476.439 97.6387C475.973 96.9065 475.566 96.1374 475.225 95.3389L473.779 95.8596C474.297 96.5222 474.672 97.2858 474.878 98.1016C475.76 97.523 476.946 98.4994 477.401 99.3166C478.128 100.866 478.616 102.517 478.847 104.213C479.08 105.3 479.242 106.402 479.331 107.511C479.354 108.32 479.193 109.123 478.861 109.861C478.305 111.564 477.307 113.089 475.97 114.28C475.247 114.917 474.451 115.466 473.67 116.045C473.403 116.247 473.121 116.464 472.817 116.652C475.63 116.182 479.686 114.678 481.667 110.042C481.645 110.02 484.638 102.137 476.439 97.6387Z" fill="#FDC250"/>
  <path d="M476.44 97.6387C475.973 96.9065 475.567 96.1374 475.225 95.3389L474.394 95.6354C474.56 95.5775 477.098 100.271 477.351 100.734C479.859 105.218 479.52 110.136 475.717 113.752C474.682 114.787 473.482 115.642 472.167 116.284C471.394 116.683 470.527 116.865 469.658 116.811C469.701 116.833 469.748 116.848 469.796 116.855C469.796 116.855 478.471 117.578 481.645 110.057C481.645 110.02 484.638 102.137 476.44 97.6387Z" fill="#FBB34E"/>
  <path d="M475.717 97.7981V97.7619C475.858 97.5913 476.056 97.4781 476.274 97.4437C475.855 96.7621 475.485 96.0516 475.168 95.3174L474.336 95.6139C474.865 96.2964 475.327 97.0278 475.717 97.7981Z" fill="#FBB34E"/>
  <path opacity="0.5" d="M478.934 99.8447L478.283 99.1938C477.896 98.7582 477.427 98.4041 476.902 98.1523C476.562 98.0366 476.179 98.2753 476.454 98.6658C476.591 98.8828 476.736 99.0781 476.866 99.295C477.061 99.6277 477.271 99.9532 477.466 100.286C477.824 100.872 478.129 101.489 478.377 102.13C478.879 103.34 479.192 104.621 479.302 105.927C479.353 106.683 479.302 107.442 479.15 108.183C478.86 110.046 478.071 111.796 476.866 113.246C476.09 114.096 475.193 114.827 474.205 115.416C473.981 115.546 473.171 115.799 473.294 116.139C473.417 116.479 473.815 116.284 474.017 116.211C474.762 115.971 475.487 115.674 476.186 115.322C477.3 114.71 478.319 113.937 479.208 113.029C479.747 112.476 480.202 111.847 480.56 111.163C481.486 108.993 481.963 107.012 481.442 104.712C481.242 103.829 480.964 102.964 480.611 102.13C480.186 101.278 479.619 100.505 478.934 99.8447Z" fill="#FFDC52"/>
  <path d="M473.91 96.2357C474.496 96.2026 475.067 96.0369 475.581 95.7512C475.581 95.7512 476.116 95.4763 475.537 94.3698C475.537 94.3698 475.197 93.8491 474.662 94.4927C474.489 94.61 474.284 94.6684 474.075 94.6593C473.867 94.6502 473.667 94.574 473.505 94.4421C473.505 94.4421 472.601 94.7459 473.91 96.2357Z" fill="#4B281E"/>
  <path d="M481.254 102.919C480.452 103.345 480.018 104.893 480.054 105.718C480.167 106.811 480.568 107.855 481.218 108.741C484.11 113.167 490.805 111.634 491.579 106.911C491.947 104.669 491.072 100.894 488.303 100.626C486.857 100.489 485.701 101.639 484.356 102C483.29 102.185 482.249 102.493 481.254 102.919Z" fill="#EE3828"/>
  <path d="M488.007 109.811C486.966 109.941 485.585 109.811 484.927 108.878C484.428 108.154 484.204 107.106 485.014 106.556C485.238 106.404 485.484 106.274 485.737 106.115C485.875 106.027 486.001 105.923 486.113 105.804C486.207 105.695 486.641 105.167 485.997 105.225C485.37 105.4 484.764 105.642 484.19 105.948C483.467 106.187 482.556 106.014 482.628 105.066C482.7 104.119 483.633 103.446 484.493 103.085C485.367 102.841 486.161 102.369 486.792 101.718C486.901 101.573 487.284 101.067 487.06 100.821C486.149 101.139 485.325 101.768 484.392 102.014C483.326 102.199 482.285 102.507 481.291 102.933C480.488 103.359 480.054 104.907 480.09 105.732C480.203 106.825 480.604 107.868 481.254 108.755C484.146 113.181 490.841 111.648 491.615 106.925C491.619 106.884 491.619 106.843 491.615 106.802C491.359 107.593 490.884 108.295 490.245 108.828C489.607 109.36 488.831 109.701 488.007 109.811Z" fill="#C62E20"/>
  <path opacity="0.1" d="M489.453 102.579C490.032 103.259 490.133 104.134 489.678 104.517C489.222 104.9 488.383 104.662 487.804 103.982C487.226 103.302 487.081 102.427 487.573 102.036C488.065 101.646 488.889 101.892 489.453 102.579Z" fill="white"/>
  <path opacity="0.1" d="M489.8 105.312C489.848 105.366 489.884 105.429 489.907 105.498C489.931 105.566 489.94 105.638 489.935 105.71C489.931 105.782 489.912 105.852 489.88 105.916C489.848 105.981 489.804 106.039 489.75 106.086C489.696 106.134 489.633 106.17 489.565 106.193C489.496 106.216 489.424 106.226 489.352 106.221C489.281 106.216 489.21 106.198 489.146 106.166C489.081 106.134 489.023 106.09 488.976 106.035C488.929 105.981 488.892 105.918 488.869 105.85C488.846 105.782 488.836 105.71 488.841 105.638C488.846 105.566 488.865 105.496 488.896 105.431C488.928 105.367 488.972 105.309 489.027 105.262C489.081 105.214 489.144 105.178 489.212 105.155C489.28 105.131 489.352 105.122 489.424 105.127C489.496 105.131 489.566 105.15 489.631 105.182C489.695 105.214 489.753 105.258 489.8 105.312Z" fill="white"/>
  <g style="mix-blend-mode:soft-light" opacity="0.3">
    <path d="M485.622 101.826C485.716 102 485.586 102.246 485.34 102.376C485.246 102.444 485.129 102.473 485.015 102.456C484.9 102.44 484.796 102.38 484.725 102.289C484.631 102.116 484.725 101.863 485.007 101.74C485.289 101.617 485.535 101.646 485.622 101.826Z" fill="white"/>
  </g>
  <path d="M484.913 102.253C484.913 102.253 483.952 104.119 482.296 103.931C482.296 103.931 484.624 104.603 485.238 102.311L484.913 102.253Z" fill="#5CA43B"/>
  <path d="M484.92 102.036C484.92 102.036 483.069 103.027 481.811 101.935C481.811 101.935 483.344 103.808 485.159 102.268L484.92 102.036Z" fill="#5CA43B"/>
  <path d="M485.216 102.13C485.216 102.13 486.959 103.309 488.318 102.347C488.318 102.347 486.597 104.054 484.956 102.347L485.216 102.13Z" fill="#5CA43B"/>
  <path d="M485.195 101.935C485.195 101.935 487.256 101.53 487.538 99.8955C487.538 99.8955 487.538 102.311 485.159 102.268L485.195 101.935Z" fill="#5CA43B"/>
  <path d="M484.912 102.253C483.832 102.196 482.785 101.857 481.876 101.27C482.961 101.341 484.027 101.586 485.035 101.993L484.912 102.253Z" fill="#5CA43B"/>
  <path d="M485.036 101.978C485.426 100.927 485.946 99.9283 486.583 99.0059C486.465 100.137 485.98 101.199 485.202 102.029L485.036 101.978Z" fill="#5CA43B"/>
  <path d="M485.267 102.239C485.09 101.76 485.026 101.247 485.078 100.739C485.131 100.231 485.3 99.742 485.571 99.3096C485.292 99.3683 485 99.3137 484.761 99.1577C484.458 100.237 484.507 101.384 484.898 102.434C484.898 102.434 484.898 102.607 485.152 102.528C485.181 102.52 485.208 102.505 485.23 102.485C485.253 102.465 485.27 102.44 485.281 102.412C485.293 102.384 485.297 102.354 485.295 102.324C485.292 102.294 485.283 102.265 485.267 102.239Z" fill="#4E9033"/>
  <g style="mix-blend-mode:multiply">
    <path d="M485.014 102.174C484.754 102.015 484.747 101.508 484.725 101.241C484.682 100.898 484.721 100.55 484.839 100.225C484.957 99.9008 485.151 99.6092 485.405 99.3748C485.425 99.3534 485.45 99.337 485.478 99.3269C485.505 99.3169 485.535 99.3135 485.564 99.3169C485.285 99.3756 484.993 99.321 484.754 99.165C484.451 100.244 484.5 101.391 484.891 102.441C484.891 102.441 484.891 102.615 485.145 102.535C485.174 102.527 485.201 102.513 485.223 102.493C485.246 102.473 485.263 102.447 485.274 102.419C485.286 102.391 485.29 102.361 485.288 102.331C485.285 102.301 485.276 102.272 485.26 102.246C485.172 102.253 485.084 102.228 485.014 102.174Z" fill="#D0D2D3"/>
  </g>
  <path d="M485.571 99.3024C485.571 99.3748 485.368 99.3964 485.144 99.353C484.92 99.3097 484.746 99.2301 484.754 99.165C484.761 99.0999 484.963 99.071 485.188 99.1144C485.412 99.1578 485.585 99.2373 485.571 99.3024Z" fill="#5CA43B"/>
  <path d="M502.611 94.905C505.547 95.6282 504.621 103.482 502.228 112.812C499.835 122.142 496.864 129.446 493.921 128.723C490.979 128 487.696 119.054 490.097 109.731C492.497 100.409 499.669 94.1456 502.611 94.905Z" fill="#F8B072"/>
  <g style="mix-blend-mode:multiply" opacity="0.5">
    <path d="M491.738 117.101C492.872 116.857 494.027 116.724 495.186 116.703C494.845 116.383 494.443 116.135 494.002 115.976C493.562 115.817 493.094 115.749 492.627 115.778C491.444 115.852 490.296 116.209 489.28 116.819C489.28 117.398 489.309 117.962 489.367 118.512L489.41 118.591C490.061 117.923 490.858 117.413 491.738 117.101Z" fill="#F8B072"/>
  </g>
  <g style="mix-blend-mode:multiply" opacity="0.5">
    <path d="M492.092 111.807C493.147 111.59 494.261 111.633 495.309 111.359C494.275 109.71 491.492 110.549 489.706 111.481C489.619 111.966 489.54 112.451 489.482 112.928C490.301 112.445 491.178 112.069 492.092 111.807Z" fill="#F8B072"/>
  </g>
  <g style="mix-blend-mode:multiply" opacity="0.5">
    <path d="M496.77 106.397C496.943 104.806 493.531 105.334 491.477 105.674C491.224 106.245 490.993 106.838 490.754 107.446C492.757 106.809 494.579 106.187 496.77 106.397Z" fill="#F8B072"/>
  </g>
  <g style="mix-blend-mode:multiply" opacity="0.5">
    <path d="M495.28 101.899C495.526 101.899 497.738 102.622 497.702 102.26C497.601 101.197 495.743 100.575 494.81 100.568H494.449C494.14 100.987 493.837 101.429 493.538 101.891C494.118 101.84 494.701 101.843 495.28 101.899Z" fill="#F8B072"/>
  </g>
  <g style="mix-blend-mode:multiply" opacity="0.5">
    <path d="M502.337 95.7656C503.783 98.0076 502.792 100.293 502.445 102.622C502.033 105.37 502.048 108.277 501.079 110.91C500.709 112.043 500.072 113.07 499.221 113.904C498.207 114.692 497.464 115.777 497.095 117.007C496.582 119.126 496.228 121.462 493.9 122.46C493.299 122.666 492.648 122.681 492.038 122.502C491.429 122.323 490.889 121.96 490.494 121.462C490.164 121.106 489.86 120.726 489.583 120.326C490.306 124.912 492.172 128.238 493.921 128.687C496.864 129.41 499.828 122.142 502.228 112.776C504.629 103.41 505.547 95.6209 502.611 94.8687C502.259 94.7924 501.894 94.7924 501.541 94.8687C501.857 95.1185 502.127 95.4221 502.337 95.7656Z" fill="#F8B072"/>
  </g>
  <path fill-rule="evenodd" clip-rule="evenodd" d="M418.833 48.6187C418.833 48.6187 421.674 58.9392 411.032 62.0997C400.39 65.2602 397.766 65.6435 395.691 67.7553C393.616 69.8671 409.427 73.9895 422.441 73.599C435.454 73.2084 443.833 63.7414 443.689 60.957C443.689 60.957 436.857 59.0549 436.611 58.6354C436.365 58.216 433.198 41.5022 435.042 29.7064C435.071 29.6557 424.01 35.8683 418.833 48.6187Z" fill="#FFBE6D"/>
  <path opacity="0.2" fill-rule="evenodd" clip-rule="evenodd" d="M420.25 48.5175C420.25 48.5175 428.326 49.1106 429.526 48.1197C430.726 47.1289 434.587 42.5075 434.587 42.5075L435.071 29.6558C435.071 29.6558 418.985 37.6908 420.25 48.5175Z" fill="#231F20"/>
  <path fill-rule="evenodd" clip-rule="evenodd" d="M414.003 3.35206C414.003 3.35206 401.836 10.0781 406.051 25.9023C408.841 36.4541 412.023 43.4839 414.003 47.0133C414.439 47.7842 415.116 48.3907 415.93 48.7396C416.743 49.0884 417.649 49.1603 418.508 48.9443C421.334 48.221 427.313 46.8686 427.313 46.8686C427.313 46.8686 431.131 42.8619 434.608 31.7242C438.086 20.5866 439.011 9.68029 428.101 2.79517C428.109 2.75901 422.216 -0.625689 414.003 3.35206Z" fill="#FFBE6D"/>
  <path fill-rule="evenodd" clip-rule="evenodd" d="M420.25 176.666L425.99 200.771L470.33 200.641L466.318 170.323L420.25 176.666Z" fill="#231F20"/>
  <path fill-rule="evenodd" clip-rule="evenodd" d="M411.886 61.6441C411.886 61.6441 409.673 73.0132 420.981 73.3531C432.288 73.693 441.224 65.2385 439.612 59.6118C439.612 59.6118 459.378 63.8499 463.397 66.779C467.417 69.7081 475.76 97.6391 475.76 97.6391L459.132 106.282L465.104 170.837C465.104 170.837 452.423 176.724 439.416 177.744C426.41 178.763 407.49 175.697 398.344 175.444C389.199 175.191 392.134 174.135 392.134 174.135C392.134 174.135 394.382 119.893 394.498 114.78C394.664 107.598 394.599 105.537 394.599 105.537L381.246 105.631C381.246 105.631 378.65 86.9932 384.68 76.0942C390.71 65.1951 411.965 61.9334 411.886 61.6441Z" fill="#FF6565"/>
  <path fill-rule="evenodd" clip-rule="evenodd" d="M381.73 105.594L381.947 112.826L373.112 79.0518L364.726 81.5397C364.726 81.5397 368.492 121.028 371.008 127.985C373.524 134.943 381.441 147.028 393.919 138.168L394.642 105.507L381.73 105.594Z" fill="#FFBE6D"/>
  <path opacity="0.2" fill-rule="evenodd" clip-rule="evenodd" d="M453.174 128.528C453.174 128.528 454.316 151.252 456.962 162.7C459.608 174.149 399.515 175.082 399.515 175.082C399.515 175.082 424.595 179.899 440.775 178.214C456.955 176.528 464.322 170.323 464.322 170.323L454.75 128.528H453.174Z" fill="#231F20"/>
  <path fill-rule="evenodd" clip-rule="evenodd" d="M458.604 106.245C458.604 106.245 455.459 107.475 452.82 114.273C450.181 121.072 459.269 174.793 471.155 177.628C483.041 180.463 493.068 172.131 493.068 172.131C493.068 172.131 506.711 167.705 505.359 110.874C505.359 110.874 500.363 108.885 492.403 108.979C484.443 109.073 477.879 103.772 477.879 103.772C477.879 103.772 459.638 104.915 458.604 106.245Z" fill="#83CFC8"/>
  <path opacity="0.2" fill-rule="evenodd" clip-rule="evenodd" d="M476.367 103.027C476.367 103.027 481.428 121.042 482.693 135.362C483.958 149.682 467.402 175.024 467.402 175.024L465.082 174.54L474.806 128.738L476.367 103.027Z" fill="#231F20"/>
  <path fill-rule="evenodd" clip-rule="evenodd" d="M475.167 97.9209C475.167 97.9209 480.893 121.259 480.669 128.94C480.445 136.621 466.094 176.029 466.094 176.029L459.587 174.156L466.86 132.079L459.905 105.905L475.167 97.9209Z" fill="#FFBE6D"/>
  <path fill-rule="evenodd" clip-rule="evenodd" d="M392.416 174.511L391.693 200.771H424.046L422.123 177.433L392.416 174.511Z" fill="#231F20"/>
  <path fill-rule="evenodd" clip-rule="evenodd" d="M429.67 23.2984C429.67 23.2984 431.839 21.5409 432.656 23.3924C433.473 25.2439 432.548 28.2959 432.7 29.6845C432.851 31.0731 434.254 33.4453 434.254 33.4453C434.254 33.4453 437.58 23.5081 437.406 19.3423C437.233 15.1765 434.268 7.0981 434.268 7.0981C434.268 7.0981 431.991 0.545667 427.509 1.03746C423.026 1.52926 415.71 1.76792 411.473 0.20575C407.236 -1.35642 401.482 6.10005 404.352 18.3877C404.352 18.3877 415.768 19.4508 422.028 15.7334C428.289 12.016 425.701 15.7334 426.128 17.0786C426.554 18.4238 426.453 23.66 429.67 23.2984Z" fill="black"/>
  <path fill-rule="evenodd" clip-rule="evenodd" d="M372.968 78.9945C371.937 80.0863 370.668 80.9238 369.259 81.4409C367.85 81.958 366.34 82.1405 364.849 81.9741C364.643 80.9183 364.225 79.9156 363.618 79.0276C363.011 78.1396 362.229 77.385 361.32 76.8103C358.291 75.0095 356.874 71.0245 357.04 69.3466C357.207 67.6687 359.209 65.5714 361.378 65.0072C363.629 64.5486 365.91 64.2513 368.203 64.1177C368.203 64.1177 368.753 69.3104 368.745 71.4584L368.839 75.5591L372.968 78.9945Z" fill="#FFBE6D"/>
  <path d="M417.537 31.1622C418.261 31.0323 418.727 30.2577 418.579 29.4321C418.431 28.6065 417.724 28.0425 417.001 28.1724C416.277 28.3024 415.811 29.077 415.959 29.9026C416.107 30.7282 416.814 31.2921 417.537 31.1622Z" fill="black"/>
  <path d="M407.73 31.0438C408.376 30.9252 408.79 30.2324 408.655 29.4965C408.52 28.7606 407.887 28.2602 407.241 28.3789C406.595 28.4975 406.181 29.1903 406.316 29.9262C406.451 30.6622 407.084 31.1625 407.73 31.0438Z" fill="black"/>
  <path d="M420.85 25.6417C420.016 25.2752 419.115 25.0859 418.204 25.0859C417.293 25.0859 416.392 25.2752 415.558 25.6417" stroke="black" stroke-linecap="round" stroke-linejoin="round"/>
  <path d="M408.914 26.7627C408.309 26.7158 407.702 26.7944 407.13 26.9936C406.558 27.1927 406.033 27.5081 405.588 27.9198" stroke="black" stroke-linecap="round" stroke-linejoin="round"/>
  <path d="M420.67 36.736C422.351 36.736 423.713 35.7322 423.713 34.494C423.713 33.2557 422.351 32.252 420.67 32.252C418.989 32.252 417.626 33.2557 417.626 34.494C417.626 35.7322 418.989 36.736 420.67 36.736Z" fill="black" fill-opacity="0.15"/>
  <path d="M411.481 31.8833L410.982 36.3962L412.971 37.105" stroke="black" stroke-linecap="round" stroke-linejoin="round"/>
  <path opacity="0.2" fill-rule="evenodd" clip-rule="evenodd" d="M381.73 105.594C381.73 105.594 390.5 108.118 391.288 110.158C392.076 112.197 393.927 138.139 393.927 138.139L394.65 105.479L381.73 105.594Z" fill="#231F20"/>
  <path d="M381.955 112.827L386.618 130.184" stroke="white" stroke-miterlimit="10"/>
  <path d="M466.701 133.149L468.061 126.416" stroke="white" stroke-miterlimit="10"/>
  <path opacity="0.2" fill-rule="evenodd" clip-rule="evenodd" d="M459.927 105.905L476.367 103.027L475.167 97.9209L459.927 105.905Z" fill="#231F20"/>
  <path d="M410.316 62.9238C410.316 62.9238 409.594 72.3258 417.597 74.0615C425.6 75.7973 433.502 71.3928 433.502 71.3928" stroke="white" stroke-width="0.4" stroke-miterlimit="10" stroke-linecap="round"/>
  <path d="M394.578 107.171V90.3418" stroke="white" stroke-miterlimit="10"/>
  <path d="M459.927 105.906L456.03 91.8389" stroke="white" stroke-miterlimit="10"/>
  <path d="M458.749 101.653L450.68 94.8398" stroke="white" stroke-miterlimit="10"/>
  <path d="M493.87 108.979L464.322 67.7554C462.487 67.5814 460.652 68.0846 459.162 69.1703C457.672 70.2559 456.63 71.8491 456.232 73.6497C454.497 80.2889 457.982 106.607 457.982 106.607" stroke="#231F20" stroke-miterlimit="10"/>
  <path d="M360.663 58.3531C361.286 58.3531 361.791 57.848 361.791 57.2249C361.791 56.6018 361.286 56.0967 360.663 56.0967C360.04 56.0967 359.535 56.6018 359.535 57.2249C359.535 57.848 360.04 58.3531 360.663 58.3531Z" fill="white"/>
  <path d="M458.749 173.578C458.749 173.578 464.07 176.058 466.702 175.747V177.917L457.982 177.36L458.749 173.91" fill="#231F20"/>
  <path opacity="0.2" fill-rule="evenodd" clip-rule="evenodd" d="M490.002 167.474C485.26 168.804 475.182 173.397 467.402 174.995C468.366 176.24 469.688 177.159 471.191 177.628C483.076 180.456 493.068 172.131 493.068 172.131C493.068 172.131 505.069 168.24 505.438 120.854C502.018 137.503 495.418 165.955 490.002 167.474Z" fill="#231F20"/>
  <path d="M424.566 14.4173C424.566 14.4173 430.682 11.7413 433.965 6.375" stroke="white" stroke-width="0.4" stroke-miterlimit="10" stroke-linecap="round"/>
  <path d="M434.565 7.95898C433.232 10.0149 431.56 11.8294 429.62 13.3253" stroke="white" stroke-width="0.4" stroke-miterlimit="10" stroke-linecap="round"/>
  <path d="M428.485 12.0885C428.485 12.0885 425.831 6.51241 422.867 7.46707C419.903 8.42173 412.587 8.6387 408.914 6.375" stroke="white" stroke-width="0.4" stroke-miterlimit="10" stroke-linecap="round"/>
  <path d="M425.831 13.7881C425.362 13.0906 424.679 12.5637 423.886 12.2861C423.092 12.0085 422.23 11.995 421.428 12.2476C418.341 12.9709 405.856 16.8763 406.622 9.06543" stroke="white" stroke-width="0.4" stroke-miterlimit="10" stroke-linecap="round"/>
  <path d="M432.606 8.27732C432.606 8.27732 431.478 3.97412 428.651 4.126" stroke="white" stroke-width="0.4" stroke-miterlimit="10" stroke-linecap="round"/>
  <path d="M420.496 32.6933L430.624 22.4017L432.613 21.4326L434.565 26.1842L423.713 42.493" stroke="black" stroke-width="0.5" stroke-miterlimit="10" stroke-linecap="round"/>
  <path fill-rule="evenodd" clip-rule="evenodd" d="M408.48 35.044C409.13 35.0257 409.78 35.0962 410.411 35.2537C411.09 35.4996 420.973 32.5488 420.973 32.5488C420.973 32.5488 419.036 38.1972 423.967 42.0086L420.518 48.4598C420.518 48.4598 415.573 50.9549 413.1 45.7333C410.628 40.5116 408.48 35.044 408.48 35.044Z" fill="#B1D9F4"/>
  <path opacity="0.2" fill-rule="evenodd" clip-rule="evenodd" d="M434.312 200.771V199.563C434.312 199.288 434.312 186.813 434.312 186.813H433.495C427.219 139.803 386.885 103.425 338.207 103.425C332.248 103.423 326.301 103.973 320.443 105.066C319.272 105.283 318.084 105.392 316.894 105.392C313.757 105.399 310.67 104.61 307.921 103.099C304.803 111.287 303.208 119.976 303.215 128.738C303.215 129.077 303.215 129.425 303.215 129.764C303.215 148.593 310.692 166.65 324.001 179.963C337.31 193.277 355.36 200.756 374.182 200.756L434.312 200.771Z" fill="#231F20"/>
  <path opacity="0.2" fill-rule="evenodd" clip-rule="evenodd" d="M159.842 109.847C159.842 109.24 159.842 108.625 159.842 108.01C159.842 107.395 159.842 106.723 159.799 106.086C159.741 104.64 159.611 103.194 159.43 101.747C151.706 107.953 142.082 111.311 132.174 111.258H131.119C130.396 111.258 129.673 111.258 128.95 111.258C112.94 111.26 97.2051 115.427 83.2907 123.349C69.3762 131.271 57.7599 142.676 49.5818 156.445C49.9288 156.445 50.3048 156.445 50.6301 156.445H113.276C119.392 156.446 125.449 155.241 131.101 152.899C136.752 150.558 141.886 147.125 146.211 142.798C150.535 138.471 153.965 133.333 156.304 127.679C158.643 122.026 159.845 115.966 159.842 109.847Z" fill="#231F20"/>
  <path fill-rule="evenodd" clip-rule="evenodd" d="M419.968 199.563C419.957 187.544 417.301 175.675 412.188 164.798C407.075 153.922 399.63 144.305 390.383 136.631C381.135 128.957 370.312 123.414 358.682 120.397C347.052 117.379 334.9 116.96 323.09 119.17C318.248 120.1 313.259 119.929 308.492 118.669C303.725 117.41 299.303 115.094 295.552 111.894C278.065 96.8171 255.75 88.5183 232.665 88.5064C209.58 88.4944 187.257 96.7701 169.754 111.829C158.933 121.077 145.063 125.974 130.837 125.57C130.225 125.57 129.61 125.57 128.993 125.57C108.734 125.563 89.27 133.453 74.7312 147.567C60.1924 161.68 51.7234 180.905 51.1216 201.162C51.1235 222.42 59.5644 242.808 74.5885 257.843C89.6127 272.878 109.99 281.329 131.241 281.339H339.798C350.324 281.341 360.749 279.268 370.475 275.24C380.201 271.212 389.039 265.306 396.483 257.861C403.928 250.416 409.834 241.577 413.863 231.848C417.893 222.12 419.967 211.692 419.968 201.162C419.961 200.634 419.968 200.099 419.968 199.563Z" fill="#FFE4E4"/>
  <path d="M184.228 286.343L184.337 286.445C184.397 286.488 184.466 286.518 184.538 286.534C184.611 286.551 184.686 286.553 184.759 286.54C184.832 286.527 184.902 286.5 184.965 286.46C185.028 286.42 185.082 286.368 185.125 286.307C185.66 285.541 238.907 209.298 243.498 168.421C243.509 168.275 243.463 168.13 243.37 168.017C243.276 167.904 243.143 167.832 242.997 167.816C242.851 167.8 242.705 167.841 242.589 167.931C242.473 168.021 242.397 168.153 242.377 168.298C237.822 208.871 184.734 284.882 184.199 285.642C184.124 285.745 184.086 285.87 184.091 285.998C184.097 286.125 184.145 286.247 184.228 286.343Z" fill="#639E9A"/>
  <path fill-rule="evenodd" clip-rule="evenodd" d="M184.055 253.371C184.055 253.371 202.303 261.536 192.312 275.408L184.055 253.371Z" fill="#639E9A"/>
  <path fill-rule="evenodd" clip-rule="evenodd" d="M184.055 253.371C184.055 253.371 175.625 271.495 192.311 275.408L184.055 253.371Z" fill="#639E9A"/>
  <path fill-rule="evenodd" clip-rule="evenodd" d="M189.477 239.392C189.477 239.392 208.997 243.579 202.093 259.23L189.477 239.392Z" fill="#639E9A"/>
  <path fill-rule="evenodd" clip-rule="evenodd" d="M189.477 239.392C189.477 239.392 184.987 258.875 202.093 259.23L189.477 239.392Z" fill="#639E9A"/>
  <path fill-rule="evenodd" clip-rule="evenodd" d="M202.635 222.149C202.635 222.149 220.803 230.467 210.667 244.251L202.635 222.149Z" fill="#639E9A"/>
  <path fill-rule="evenodd" clip-rule="evenodd" d="M202.635 222.149C202.635 222.149 194.046 240.194 210.667 244.251L202.635 222.149Z" fill="#639E9A"/>
  <path fill-rule="evenodd" clip-rule="evenodd" d="M209.359 206.217C209.359 206.217 228.749 211.07 221.295 226.467L209.359 206.217Z" fill="#639E9A"/>
  <path fill-rule="evenodd" clip-rule="evenodd" d="M209.359 206.217C209.359 206.217 204.211 225.534 221.295 226.467L209.359 206.217Z" fill="#639E9A"/>
  <path fill-rule="evenodd" clip-rule="evenodd" d="M217.189 190.053C217.189 190.053 236.579 194.906 229.132 210.303L217.189 190.053Z" fill="#639E9A"/>
  <path fill-rule="evenodd" clip-rule="evenodd" d="M217.189 190.053C217.189 190.053 212.048 209.37 229.132 210.303L217.189 190.053Z" fill="#639E9A"/>
  <path fill-rule="evenodd" clip-rule="evenodd" d="M230.628 171.799C230.628 171.799 247.199 182.98 234.966 194.942L230.628 171.799Z" fill="#639E9A"/>
  <path fill-rule="evenodd" clip-rule="evenodd" d="M230.629 171.799C230.629 171.799 219.206 188.194 234.966 194.942L230.629 171.799Z" fill="#639E9A"/>
  <path fill-rule="evenodd" clip-rule="evenodd" d="M262.671 162.729C262.671 162.729 256.735 181.823 241.777 173.52L262.671 162.729Z" fill="#639E9A"/>
  <path fill-rule="evenodd" clip-rule="evenodd" d="M262.671 162.729C262.671 162.729 243.671 156.51 241.777 173.52L262.671 162.729Z" fill="#639E9A"/>
  <path fill-rule="evenodd" clip-rule="evenodd" d="M255.796 187.962C255.796 187.962 249.144 206.817 234.511 197.95L255.796 187.962Z" fill="#639E9A"/>
  <path fill-rule="evenodd" clip-rule="evenodd" d="M255.796 187.963C255.796 187.963 237.056 181.027 234.511 197.951L255.796 187.963Z" fill="#639E9A"/>
  <path fill-rule="evenodd" clip-rule="evenodd" d="M240.787 229.331C240.787 229.331 229.255 245.662 217.615 233.142L240.787 229.331Z" fill="#639E9A"/>
  <path fill-rule="evenodd" clip-rule="evenodd" d="M240.787 229.331C240.787 229.331 224.643 217.55 217.615 233.143L240.787 229.331Z" fill="#639E9A"/>
  <path fill-rule="evenodd" clip-rule="evenodd" d="M250.684 210.231C250.684 210.231 239.153 226.561 227.484 214.042L250.684 210.231Z" fill="#639E9A"/>
  <path fill-rule="evenodd" clip-rule="evenodd" d="M250.684 210.231C250.684 210.231 234.54 198.449 227.484 214.042L250.684 210.231Z" fill="#639E9A"/>
  <path fill-rule="evenodd" clip-rule="evenodd" d="M217.55 267.742C217.55 267.742 205.982 284.065 194.35 271.546L217.55 267.742Z" fill="#639E9A"/>
  <path fill-rule="evenodd" clip-rule="evenodd" d="M217.55 267.742C217.55 267.742 201.406 255.953 194.35 271.546L217.55 267.742Z" fill="#639E9A"/>
  <path d="M185.638 303.867C185.691 303.905 185.75 303.934 185.812 303.954C185.907 303.989 186.007 304.004 186.108 303.999C186.209 303.995 186.308 303.97 186.399 303.927C186.491 303.884 186.573 303.824 186.641 303.749C186.708 303.674 186.761 303.586 186.795 303.491C187.229 302.291 229.523 182.712 220.702 127.335C220.692 127.233 220.661 127.135 220.61 127.046C220.56 126.957 220.491 126.88 220.408 126.82C220.325 126.76 220.231 126.718 220.131 126.697C220.031 126.676 219.927 126.677 219.827 126.699C219.728 126.714 219.632 126.748 219.546 126.8C219.459 126.852 219.384 126.921 219.324 127.002C219.264 127.084 219.221 127.176 219.197 127.274C219.173 127.372 219.169 127.474 219.184 127.574C227.939 182.539 185.775 301.777 185.349 302.971C185.29 303.131 185.287 303.306 185.34 303.469C185.392 303.631 185.497 303.771 185.638 303.867Z" fill="#83CFC8"/>
  <path fill-rule="evenodd" clip-rule="evenodd" d="M173.434 260.589C173.434 260.589 200.379 264.682 192.231 286.56L173.434 260.589Z" fill="#83CFC8"/>
  <path fill-rule="evenodd" clip-rule="evenodd" d="M173.434 260.589C173.434 260.589 168.93 287.478 192.231 286.56L173.434 260.589Z" fill="#83CFC8"/>
  <path fill-rule="evenodd" clip-rule="evenodd" d="M175.474 240.245C175.474 240.245 202.679 238.654 199.274 261.739L175.474 240.245Z" fill="#83CFC8"/>
  <path fill-rule="evenodd" clip-rule="evenodd" d="M175.474 240.245C175.474 240.245 176.66 267.489 199.274 261.739L175.474 240.245Z" fill="#83CFC8"/>
  <path fill-rule="evenodd" clip-rule="evenodd" d="M186.528 212.791C186.528 212.791 213.437 217.13 205.115 238.921L186.528 212.791Z" fill="#83CFC8"/>
  <path fill-rule="evenodd" clip-rule="evenodd" d="M186.528 212.791C186.528 212.791 181.792 239.637 205.115 238.921L186.528 212.791Z" fill="#83CFC8"/>
  <path fill-rule="evenodd" clip-rule="evenodd" d="M189.557 189.402C189.557 189.402 216.805 188.737 212.612 211.699L189.557 189.402Z" fill="#83CFC8"/>
  <path fill-rule="evenodd" clip-rule="evenodd" d="M189.557 189.402C189.557 189.402 189.81 216.667 212.612 211.699L189.557 189.402Z" fill="#83CFC8"/>
  <path fill-rule="evenodd" clip-rule="evenodd" d="M193.981 165.311C193.981 165.311 221.23 164.646 217.037 187.608L193.981 165.311Z" fill="#83CFC8"/>
  <path fill-rule="evenodd" clip-rule="evenodd" d="M193.981 165.312C193.981 165.312 194.234 192.577 217.037 187.609L193.981 165.312Z" fill="#83CFC8"/>
  <path fill-rule="evenodd" clip-rule="evenodd" d="M205.057 136.418C205.057 136.418 230.889 145.097 219.112 165.246L205.057 136.418Z" fill="#83CFC8"/>
  <path fill-rule="evenodd" clip-rule="evenodd" d="M205.057 136.418C205.057 136.418 195.991 162.129 219.112 165.246L205.057 136.418Z" fill="#83CFC8"/>
  <path fill-rule="evenodd" clip-rule="evenodd" d="M230.39 113.745C230.39 113.745 244.025 137.351 221.874 144.67L230.39 113.745Z" fill="#83CFC8"/>
  <path fill-rule="evenodd" clip-rule="evenodd" d="M230.391 113.745C230.391 113.745 206.59 127.031 221.874 144.649L230.391 113.745Z" fill="#83CFC8"/>
  <path fill-rule="evenodd" clip-rule="evenodd" d="M243.967 148.532C243.967 148.532 242.073 175.726 219.618 169.397L243.967 148.532Z" fill="#83CFC8"/>
  <path fill-rule="evenodd" clip-rule="evenodd" d="M243.968 148.532C243.968 148.532 216.813 146.225 219.618 169.397L243.968 148.532Z" fill="#83CFC8"/>
  <path fill-rule="evenodd" clip-rule="evenodd" d="M239.304 208.365C239.304 208.365 230.079 234.018 210.197 221.81L239.304 208.365Z" fill="#83CFC8"/>
  <path fill-rule="evenodd" clip-rule="evenodd" d="M239.304 208.365C239.304 208.365 213.805 198.746 210.197 221.81L239.304 208.365Z" fill="#83CFC8"/>
  <path fill-rule="evenodd" clip-rule="evenodd" d="M245.334 179.66C245.334 179.66 236.109 205.313 216.22 193.105L245.334 179.66Z" fill="#83CFC8"/>
  <path fill-rule="evenodd" clip-rule="evenodd" d="M245.334 179.66C245.334 179.66 219.835 170.041 216.22 193.098L245.334 179.66Z" fill="#83CFC8"/>
  <path fill-rule="evenodd" clip-rule="evenodd" d="M222.676 267.293C222.676 267.293 213.451 292.946 193.562 280.738L222.676 267.293Z" fill="#83CFC8"/>
  <path fill-rule="evenodd" clip-rule="evenodd" d="M222.676 267.294C222.676 267.294 197.177 257.675 193.562 280.738L222.676 267.294Z" fill="#83CFC8"/>
  <path d="M366.497 303.881C366.546 303.915 366.6 303.942 366.656 303.961C366.824 304.019 367.008 304.01 367.169 303.934C367.33 303.858 367.454 303.723 367.516 303.556C367.885 302.507 404.843 198.03 397.158 149.653C397.152 149.56 397.126 149.47 397.083 149.387C397.039 149.304 396.979 149.232 396.906 149.174C396.833 149.116 396.749 149.073 396.659 149.05C396.569 149.026 396.474 149.021 396.382 149.036C396.29 149.05 396.202 149.084 396.124 149.134C396.045 149.185 395.978 149.251 395.927 149.329C395.875 149.407 395.841 149.494 395.825 149.586C395.809 149.678 395.813 149.773 395.835 149.863C403.484 197.907 366.642 302.059 366.266 303.1C366.213 303.238 366.208 303.389 366.25 303.53C366.291 303.671 366.378 303.794 366.497 303.881Z" fill="#83CFC8"/>
  <path fill-rule="evenodd" clip-rule="evenodd" d="M355.833 266.071C355.833 266.071 379.38 269.651 372.274 288.759L355.833 266.071Z" fill="#83CFC8"/>
  <path fill-rule="evenodd" clip-rule="evenodd" d="M355.833 266.071C355.833 266.071 351.9 289.562 372.274 288.759L355.833 266.071Z" fill="#83CFC8"/>
  <path fill-rule="evenodd" clip-rule="evenodd" d="M357.619 248.301C357.619 248.301 381.39 246.906 378.412 267.105L357.619 248.301Z" fill="#83CFC8"/>
  <path fill-rule="evenodd" clip-rule="evenodd" d="M357.619 248.301C357.619 248.301 358.653 272.095 378.412 267.105L357.619 248.301Z" fill="#83CFC8"/>
  <path fill-rule="evenodd" clip-rule="evenodd" d="M367.271 224.312C367.271 224.312 390.774 228.094 383.501 247.144L367.271 224.312Z" fill="#83CFC8"/>
  <path fill-rule="evenodd" clip-rule="evenodd" d="M367.271 224.312C367.271 224.312 363.128 247.766 383.501 247.144L367.271 224.312Z" fill="#83CFC8"/>
  <path fill-rule="evenodd" clip-rule="evenodd" d="M369.923 203.881C369.923 203.881 393.731 203.295 390.065 223.358L369.923 203.881Z" fill="#83CFC8"/>
  <path fill-rule="evenodd" clip-rule="evenodd" d="M369.923 203.881C369.923 203.881 370.147 227.697 390.065 223.357L369.923 203.881Z" fill="#83CFC8"/>
  <path fill-rule="evenodd" clip-rule="evenodd" d="M373.777 182.828C373.777 182.828 397.585 182.249 393.919 202.304L373.777 182.828Z" fill="#83CFC8"/>
  <path fill-rule="evenodd" clip-rule="evenodd" d="M373.777 182.828C373.777 182.828 374.001 206.651 393.919 202.305L373.777 182.828Z" fill="#83CFC8"/>
  <path fill-rule="evenodd" clip-rule="evenodd" d="M383.465 157.587C383.465 157.587 406.037 165.166 395.756 182.77L383.465 157.587Z" fill="#83CFC8"/>
  <path fill-rule="evenodd" clip-rule="evenodd" d="M383.465 157.587C383.465 157.587 375.549 180.05 395.756 182.77L383.465 157.587Z" fill="#83CFC8"/>
  <path fill-rule="evenodd" clip-rule="evenodd" d="M417.459 168.168C417.459 168.168 415.811 191.933 396.189 186.401L417.459 168.168Z" fill="#83CFC8"/>
  <path fill-rule="evenodd" clip-rule="evenodd" d="M417.46 168.168C417.46 168.168 393.739 166.157 396.19 186.401L417.46 168.168Z" fill="#83CFC8"/>
  <path fill-rule="evenodd" clip-rule="evenodd" d="M413.36 220.443C413.36 220.443 405.299 242.863 387.926 232.188L413.36 220.443Z" fill="#83CFC8"/>
  <path fill-rule="evenodd" clip-rule="evenodd" d="M413.36 220.443C413.36 220.443 391.078 212.046 387.926 232.159L413.36 220.443Z" fill="#83CFC8"/>
  <path fill-rule="evenodd" clip-rule="evenodd" d="M418.66 195.369C418.66 195.369 410.591 217.789 393.226 207.107L418.66 195.369Z" fill="#83CFC8"/>
  <path fill-rule="evenodd" clip-rule="evenodd" d="M418.66 195.368C418.66 195.368 396.378 186.964 393.226 207.106L418.66 195.368Z" fill="#83CFC8"/>
  <path fill-rule="evenodd" clip-rule="evenodd" d="M398.858 271.937C398.858 271.937 390.796 294.357 373.423 283.682L398.858 271.937Z" fill="#83CFC8"/>
  <path fill-rule="evenodd" clip-rule="evenodd" d="M398.858 271.936C398.858 271.936 376.583 263.533 373.423 283.682L398.858 271.936Z" fill="#83CFC8"/>
  <path fill-rule="evenodd" clip-rule="evenodd" d="M405.588 137.778C405.588 137.778 417.503 158.404 398.142 164.79L405.588 137.778Z" fill="#83CFC8"/>
  <path fill-rule="evenodd" clip-rule="evenodd" d="M405.588 137.778C405.588 137.778 384.795 149.386 398.142 164.79L405.588 137.778Z" fill="#83CFC8"/>
  <circle cx="80" cy="180" r="24.875" stroke="#3C4043" stroke-width="0.25"/>
  <circle cx="80" cy="180" r="34.875" stroke="#3C4043" stroke-width="0.25"/>
  <circle cx="80" cy="180" r="49.875" stroke="#3C4043" stroke-width="0.25"/>
  <circle cx="131" cy="69" r="24.875" stroke="#3C4043" stroke-width="0.25"/>
  <circle cx="131" cy="69" r="34.875" stroke="#3C4043" stroke-width="0.25"/>
  <circle cx="131" cy="69" r="49.875" stroke="#3C4043" stroke-width="0.25"/>
  <circle cx="366" cy="61" r="24.875" stroke="#3C4043" stroke-width="0.25"/>
  <circle cx="366" cy="61" r="34.875" stroke="#3C4043" stroke-width="0.25"/>
  <circle cx="366" cy="61" r="49.875" stroke="#3C4043" stroke-width="0.25"/>
  <path fill-rule="evenodd" clip-rule="evenodd" d="M325.809 142.884C325.809 142.884 328.491 154.947 320.748 155.721C313.005 156.495 293.051 157.594 284.918 167.069C276.784 176.543 264.609 221.311 264.609 221.311L218.881 193.249L218.064 208.654L260.994 240.353C260.994 240.353 273.495 248.714 281.642 230.228L283.811 224.298L351.72 208.242L361.647 155.598L349.421 153.429C349.421 153.429 344.794 148.308 345.922 119.784C345.951 119.777 329.25 119.336 325.809 142.884Z" fill="#FFBE6D" stroke="#FFBE6D" stroke-width="0.24" stroke-linecap="round" stroke-linejoin="round"/>
  <path opacity="0.2" fill-rule="evenodd" clip-rule="evenodd" d="M325.809 142.884C333.26 142.316 340.276 139.156 345.64 133.952C345.64 133.952 345.358 121.99 346.103 118.302C346.103 118.302 325.224 132.52 325.809 142.884Z" fill="#231F20"/>
  <path fill-rule="evenodd" clip-rule="evenodd" d="M311.277 156.408C311.277 156.408 308.508 166.165 306.939 183.935C306.939 183.935 305.074 193.098 310.25 193.85L344.953 196.562C344.953 196.562 350.809 162.382 349.732 153.32C349.732 153.32 359.948 154.044 362.29 155.967C362.29 155.967 371.067 201.726 370.438 208.763C369.809 215.8 373.597 283.508 373.597 283.508L267.855 282.113C267.855 282.113 270.075 258.969 282.315 238.864C282.315 238.864 287.122 181.982 298.22 159.381C298.213 159.395 305.522 156.141 311.277 156.408Z" fill="white"/>
  <path opacity="0.2" fill-rule="evenodd" clip-rule="evenodd" d="M331.405 189.423C331.405 189.423 331.513 195.412 335.743 194.667C339.972 193.922 343.696 195.007 346.096 192.924C348.496 190.841 350.925 209.356 350.925 209.356L353.167 266.809H364.011V241.105L372.036 253.436L371.226 236.317L362.891 200.156L350.065 186.292L343.724 184.939H337.218L331.405 189.423Z" fill="#231F20"/>
  <path fill-rule="evenodd" clip-rule="evenodd" d="M327.884 90.2403C327.884 90.2403 308.299 93.3067 310.424 110.577C312.55 127.848 317.921 142.096 321.826 142.747C325.73 143.397 338.692 143.144 344.961 123.393C351.229 103.642 342.994 88.3888 327.884 90.2403Z" fill="#FFBE6D" stroke="#FFBE6D" stroke-width="0.24" stroke-linecap="round" stroke-linejoin="round"/>
  <path fill-rule="evenodd" clip-rule="evenodd" d="M362.211 155.779C362.211 155.779 381.731 157.443 385.606 180.167C389.481 202.89 395.59 235.674 387.233 240.419C378.875 245.163 369.672 245.3 361.206 218.179C352.74 191.058 351.887 191.34 347.412 190.661C342.936 189.981 351.026 179.299 356.239 185.641C361.452 191.984 370.207 206.846 370.207 206.846L362.681 157.566L362.211 155.779Z" fill="#FFBE6D" stroke="#FFBE6D" stroke-width="0.24" stroke-linecap="round" stroke-linejoin="round"/>
  <path d="M327.031 127.971C328.82 127.971 330.27 126.89 330.27 125.556C330.27 124.222 328.82 123.14 327.031 123.14C325.242 123.14 323.792 124.222 323.792 125.556C323.792 126.89 325.242 127.971 327.031 127.971Z" fill="black" fill-opacity="0.15"/>
  <path d="M313.084 127.313C314.386 127.313 315.441 126.526 315.441 125.556C315.441 124.585 314.386 123.798 313.084 123.798C311.783 123.798 310.728 124.585 310.728 125.556C310.728 126.526 311.783 127.313 313.084 127.313Z" fill="black" fill-opacity="0.15"/>
  <path d="M317.575 119.336C317.575 119.336 316.743 122.605 316.208 123.972C315.673 125.339 318.255 126.467 318.255 126.467" stroke="black" stroke-miterlimit="10" stroke-linecap="round"/>
  <path d="M315.268 118.945H310.634C309.923 118.945 309.347 119.522 309.347 120.233V120.24C309.347 120.951 309.923 121.527 310.634 121.527H315.268C315.979 121.527 316.555 120.951 316.555 120.24V120.233C316.555 119.522 315.979 118.945 315.268 118.945Z" fill="#FAFBE9" stroke="black" stroke-width="0.5" stroke-miterlimit="10"/>
  <path d="M326.778 118.945H322.144C321.433 118.945 320.857 119.522 320.857 120.233V120.24C320.857 120.951 321.433 121.527 322.144 121.527H326.778C327.489 121.527 328.065 120.951 328.065 120.24V120.233C328.065 119.522 327.489 118.945 326.778 118.945Z" fill="#FAFBE9" stroke="black" stroke-width="0.5" stroke-miterlimit="10"/>
  <path d="M323.402 112.704C323.402 112.704 327.617 111.763 328.694 115.763" stroke="black" stroke-miterlimit="10" stroke-linecap="round"/>
  <path d="M309.253 115.647C309.253 115.647 310.699 111.561 314.639 112.755" stroke="black" stroke-miterlimit="10" stroke-linecap="round"/>
  <path d="M321.919 118.099C321.919 118.099 324.457 115.445 326.908 118.301" stroke="black" stroke-miterlimit="10" stroke-linecap="round"/>
  <path d="M310.453 118.099C310.453 118.099 312.991 115.445 315.449 118.301" stroke="black" stroke-miterlimit="10" stroke-linecap="round"/>
  <path d="M338.461 187.022C341.529 187.022 344.471 188.242 346.64 190.412C348.81 192.582 350.028 195.525 350.028 198.594V215.633H326.864V198.623C326.86 197.099 327.158 195.588 327.739 194.179C328.321 192.77 329.175 191.49 330.252 190.412C331.33 189.334 332.61 188.479 334.019 187.898C335.427 187.316 336.937 187.019 338.461 187.022Z" stroke="#231F20" stroke-width="3" stroke-miterlimit="10"/>
  <path d="M361.575 205.819H315.348V263.121H361.575V205.819Z" fill="#83CFC8"/>
  <path fill-rule="evenodd" clip-rule="evenodd" d="M354.981 184.976C354.981 184.976 355.581 182.727 345.546 181.288C335.511 179.848 333.747 181.758 333.747 181.758C333.747 181.758 332.627 188.086 333.993 190.436C335.359 192.787 338.237 191.492 339.394 191.16C340.55 190.827 343.008 190.718 344.454 187.261C344.454 187.261 346.725 190.263 346.956 190.386C347.187 190.509 354.981 184.976 354.981 184.976Z" fill="#FFBE6D"/>
  <path d="M346.638 218.049L346.501 211.989C346.492 211.77 346.571 211.557 346.719 211.396C346.868 211.235 347.074 211.14 347.292 211.132C347.511 211.123 347.724 211.201 347.885 211.35C348.045 211.499 348.14 211.705 348.149 211.923L348.511 218.932C348.549 219.712 348.366 220.488 347.982 221.169C347.599 221.85 347.03 222.408 346.342 222.779C345.995 222.971 345.711 223.257 345.52 223.603C345.329 223.95 345.241 224.344 345.264 224.739L346.132 243.008C346.127 243.472 345.938 243.915 345.607 244.24C345.275 244.565 344.828 244.745 344.364 244.74C343.9 244.735 343.457 244.546 343.132 244.214C342.808 243.883 342.628 243.436 342.633 242.972L343.479 224.761C343.499 224.366 343.409 223.974 343.217 223.629C343.025 223.283 342.74 222.999 342.394 222.808C341.707 222.435 341.139 221.875 340.755 221.193C340.371 220.511 340.188 219.735 340.225 218.953L340.594 211.916C340.598 211.813 340.622 211.711 340.665 211.617C340.708 211.523 340.769 211.438 340.845 211.367C340.921 211.297 341.01 211.242 341.107 211.206C341.204 211.17 341.307 211.153 341.411 211.157C341.514 211.161 341.616 211.185 341.71 211.228C341.804 211.271 341.889 211.332 341.96 211.408C342.03 211.484 342.085 211.573 342.121 211.67C342.157 211.767 342.174 211.871 342.17 211.974L342.033 218.071C342.022 218.177 342.034 218.285 342.068 218.386C342.102 218.488 342.156 218.581 342.228 218.66C342.3 218.74 342.387 218.803 342.485 218.846C342.583 218.889 342.689 218.912 342.795 218.912C342.902 218.912 343.008 218.889 343.106 218.846C343.204 218.803 343.291 218.74 343.363 218.66C343.435 218.581 343.489 218.488 343.523 218.386C343.557 218.285 343.569 218.177 343.558 218.071L343.623 211.837C343.662 211.68 343.753 211.541 343.88 211.442C344.007 211.343 344.163 211.289 344.325 211.289C344.486 211.289 344.642 211.343 344.769 211.442C344.896 211.541 344.987 211.68 345.026 211.837L345.091 218.071C345.081 218.177 345.093 218.285 345.126 218.386C345.16 218.488 345.214 218.581 345.286 218.66C345.358 218.74 345.445 218.803 345.543 218.846C345.641 218.889 345.747 218.912 345.854 218.912C345.961 218.912 346.066 218.889 346.164 218.846C346.262 218.803 346.349 218.74 346.421 218.66C346.493 218.581 346.548 218.488 346.581 218.386C346.615 218.285 346.627 218.177 346.616 218.071L346.638 218.049Z" fill="white"/>
  <path d="M348.51 218.932L348.149 211.924C348.142 211.759 348.086 211.6 347.988 211.467C347.889 211.334 347.753 211.234 347.598 211.18C347.442 211.125 347.273 211.119 347.114 211.161C346.954 211.203 346.811 211.293 346.703 211.417C346.83 211.557 346.906 211.735 346.92 211.924L347.281 218.932C347.32 219.713 347.137 220.488 346.753 221.169C346.369 221.85 345.8 222.408 345.112 222.779C344.767 222.972 344.482 223.258 344.29 223.604C344.098 223.951 344.008 224.344 344.028 224.739L344.91 243.008C344.926 243.378 344.825 243.743 344.621 244.053C344.417 244.362 344.121 244.599 343.775 244.729C343.957 244.799 344.151 244.836 344.346 244.838C344.585 244.842 344.823 244.797 345.044 244.706C345.266 244.615 345.466 244.48 345.634 244.308C345.801 244.137 345.931 243.933 346.017 243.71C346.103 243.486 346.142 243.247 346.132 243.008L345.286 224.761C345.262 224.366 345.351 223.972 345.542 223.625C345.732 223.278 346.017 222.993 346.363 222.801C347.051 222.43 347.62 221.872 348.004 221.191C348.388 220.51 348.571 219.734 348.532 218.953L348.51 218.932Z" fill="#DBE0EA"/>
  <path d="M337.131 218.642C337.131 215.026 335.179 211.142 332.793 211.142C330.407 211.142 328.455 214.997 328.455 218.642C328.445 219.476 328.658 220.297 329.071 221.022C329.484 221.747 330.082 222.348 330.805 222.764C331.152 222.958 331.439 223.243 331.636 223.588C331.832 223.934 331.93 224.327 331.918 224.724L331.014 243.007C330.999 243.247 331.033 243.488 331.114 243.714C331.195 243.94 331.322 244.147 331.486 244.322C331.65 244.498 331.849 244.637 332.069 244.733C332.29 244.828 332.527 244.878 332.767 244.878C333.008 244.878 333.245 244.828 333.466 244.733C333.686 244.637 333.885 244.498 334.049 244.322C334.213 244.147 334.34 243.94 334.421 243.714C334.502 243.488 334.536 243.247 334.521 243.007L333.668 224.746C333.656 224.349 333.753 223.956 333.95 223.61C334.146 223.264 334.434 222.979 334.781 222.786C335.503 222.37 336.102 221.768 336.515 221.044C336.928 220.319 337.14 219.498 337.131 218.664V218.642Z" fill="white"/>
  <path d="M332.764 211.142C332.559 211.142 332.354 211.171 332.157 211.229C334.275 211.807 335.909 215.315 335.909 218.642C335.919 219.476 335.706 220.297 335.293 221.022C334.88 221.747 334.282 222.348 333.559 222.764C333.212 222.958 332.925 223.243 332.728 223.588C332.532 223.934 332.434 224.327 332.446 224.724L333.292 243.007C333.309 243.378 333.207 243.745 333.002 244.055C332.796 244.364 332.498 244.6 332.15 244.729C332.344 244.802 332.55 244.838 332.757 244.837C332.995 244.839 333.231 244.793 333.45 244.701C333.669 244.609 333.867 244.473 334.033 244.302C334.198 244.131 334.326 243.928 334.41 243.705C334.494 243.483 334.532 243.245 334.521 243.007L333.668 224.746C333.656 224.349 333.754 223.956 333.95 223.61C334.147 223.264 334.434 222.979 334.781 222.786C335.504 222.37 336.102 221.768 336.515 221.044C336.928 220.319 337.141 219.498 337.131 218.664C337.131 215.048 335.179 211.164 332.793 211.164L332.764 211.142Z" fill="#DBE0EA"/>
  <path fill-rule="evenodd" clip-rule="evenodd" d="M338.649 118.287C338.649 118.287 338.034 115.59 341.96 114.78C345.886 113.97 346.71 115.727 346.71 115.727C346.71 115.727 348.156 105.197 346.71 102.196C345.264 99.1941 334.875 106.354 334.875 106.354C334.875 106.354 331.339 108.003 333.104 109.869C334.868 111.735 337.261 110.737 337.34 113.586C337.42 116.436 336.342 119.9 338.649 118.287Z" fill="black"/>
  <path d="M328.665 124.637L338.96 116.501C338.96 116.501 342.654 114.179 342.878 117.578C342.955 119.773 342.395 121.944 341.266 123.827L333.841 137.778" stroke="black" stroke-width="0.5" stroke-miterlimit="10" stroke-linecap="round"/>
  <path fill-rule="evenodd" clip-rule="evenodd" d="M313.273 125.744C313.273 125.744 317.329 127.769 328.947 124.174C328.947 124.174 328.535 134.661 333.841 137.778C333.841 137.778 331.846 141.944 328.361 142.595C324.876 143.246 320.625 144.041 318.897 141.185C316.051 136.446 314.141 131.204 313.273 125.744Z" fill="#B1D9F4"/>
  <path d="M328.065 119.777L340.493 115.835" stroke="black" stroke-width="0.5" stroke-miterlimit="10"/>
  <path d="M316.186 119.336C316.912 118.977 317.712 118.79 318.521 118.79C319.331 118.79 320.131 118.977 320.857 119.336" stroke="black" stroke-width="0.5" stroke-miterlimit="10"/>
  <path d="M334.875 106.354C334.875 106.354 326.72 95.3609 312.694 99.3531" stroke="#231F20" stroke-width="0.4" stroke-miterlimit="10" stroke-linecap="round"/>
  <path d="M335.952 105.645C335.952 105.645 329.402 93.8855 314.639 97.6173" stroke="#231F20" stroke-width="0.4" stroke-miterlimit="10" stroke-linecap="round"/>
  <path d="M337.275 104.813C337.275 104.813 334.087 93.2997 317.198 95.2741" stroke="#231F20" stroke-width="0.4" stroke-miterlimit="10" stroke-linecap="round"/>
  <path d="M338.83 103.909C338.83 103.909 336.523 91.969 321.153 93.278" stroke="#231F20" stroke-width="0.4" stroke-miterlimit="10" stroke-linecap="round"/>
  <path d="M340.709 102.919C340.709 102.919 340.673 92.6706 326.047 91.188" stroke="#231F20" stroke-width="0.4" stroke-miterlimit="10" stroke-linecap="round"/>
  <path d="M342.9 101.978C342.9 101.978 342.676 93.372 331.658 90.6743" stroke="#231F20" stroke-width="0.4" stroke-miterlimit="10" stroke-linecap="round"/>
  <path d="M343.956 101.645C343.956 101.645 346.414 95.8597 341.339 89.2783" stroke="#231F20" stroke-width="0.4" stroke-miterlimit="10" stroke-linecap="round"/>
  <path d="M370.205 206.817L381.448 224.081" stroke="white" stroke-miterlimit="10"/>
  <path d="M271.839 251.274H336.777V281.772H260.865V262.245C260.861 260.803 261.142 259.374 261.692 258.041C262.243 256.707 263.051 255.496 264.071 254.476C265.091 253.457 266.302 252.649 267.635 252.099C268.969 251.55 270.397 251.269 271.839 251.274Z" fill="#97999C"/>
  <path fill-rule="evenodd" clip-rule="evenodd" d="M336.769 251.274L356.824 263.214V281.78H336.769V251.274Z" fill="#6E7173"/>
  <path d="M311.95 230.879H275.664V240.375H311.95V230.879Z" fill="#97999C"/>
  <path d="M293.803 242.161H288.099V251.657H293.803V242.161Z" fill="#97999C"/>
  <path fill-rule="evenodd" clip-rule="evenodd" d="M63.8167 179.429C63.817 179.891 63.9914 180.336 64.3049 180.675C64.6184 181.014 65.0481 181.222 65.5084 181.259L89.8871 183.175C90.2977 183.206 90.7095 183.136 91.0873 182.972C91.465 182.809 91.7975 182.555 92.056 182.235L94.7238 178.886C95.4542 177.976 95.8521 176.843 95.8516 175.675L63.8167 179.429Z" fill="#231F20"/>
  <path fill-rule="evenodd" clip-rule="evenodd" d="M91.0872 181.765L63.8167 179.429L70.8295 173.195L95.8588 175.675L91.0872 181.765Z" fill="#4C4647"/>
  <path fill-rule="evenodd" clip-rule="evenodd" d="M110.377 202.934C110.377 202.934 111.36 229.122 111.982 242.899C111.982 242.899 100.371 204.727 93.0475 192.483L80.3521 193.966C80.3521 193.966 97.3275 255.91 102.135 265.24C106.943 274.569 123.376 275.589 128.408 265.174C133.44 254.76 127.36 208.676 127.36 208.676L110.377 202.934Z" fill="#A8511B"/>
  <path fill-rule="evenodd" clip-rule="evenodd" d="M217.398 189.293C217.398 189.293 222.61 205.016 221.107 242.957C221.107 242.957 234.496 238.806 253.279 232.622L258.542 240.881C258.542 240.881 223.637 264.422 209.141 266.729C209.141 266.729 197.574 269.731 195.672 239.247C193.771 208.763 200.769 194.739 200.769 194.739L217.398 189.293Z" fill="#A8511B"/>
  <path fill-rule="evenodd" clip-rule="evenodd" d="M199.309 164.69C199.309 164.69 211.997 165.239 215.301 175.719C218.605 186.198 222.293 202.579 222.293 202.579L205.664 206.557C205.664 206.557 202.461 246.718 205.035 262.549C207.609 278.381 203.466 283.06 203.466 283.06C203.466 283.06 201.702 282.814 191.103 283.523C180.505 284.232 179.131 288.426 161.1 290.198C143.069 291.97 126.318 281.635 126.318 281.635C126.318 281.635 130.656 235.891 126.036 211.128L109.538 209.385C109.538 209.385 107.166 190.769 113.152 178.807C119.139 166.845 125.342 162.071 132.051 161.146C138.76 160.22 199.309 164.69 199.309 164.69Z" fill="#ECEB71"/>
  <path fill-rule="evenodd" clip-rule="evenodd" d="M179.825 132.875L181.271 140.049L171.033 133.996L170.469 128.051L179.825 132.875Z" fill="#A8511B"/>
  <path fill-rule="evenodd" clip-rule="evenodd" d="M188.819 100.235C188.819 100.235 190.178 107.128 189.31 112.631C188.443 118.135 191.125 123.675 191.125 123.675L188.146 125.794L186.382 134.994C186.382 134.994 184.466 137.887 172.349 129.454C172.349 129.454 169.248 113.666 174.07 107.46C178.892 101.255 188.819 100.235 188.819 100.235Z" fill="#A8511B"/>
  <path fill-rule="evenodd" clip-rule="evenodd" d="M190.07 94.9921C190.07 94.9921 194.133 100.207 184.929 105.775C175.726 111.344 176.449 107.005 174.041 116.002C171.634 124.999 172.53 133.634 179.16 137.641C185.79 141.647 189.144 140.693 189.282 149.111C189.419 157.53 191.703 157.067 200.545 158.679C209.387 160.292 206.033 164.277 207.833 167.112C207.833 167.112 196.265 163.308 190.901 172.341C185.537 181.374 191.031 185.489 179.543 186.415C168.055 187.341 170.434 191.008 166.392 193.026C162.351 195.043 161.845 182.662 154.275 181.96C146.706 181.259 145.491 188.245 138.276 179.66C131.06 171.076 128.877 170.844 129.6 163.38L126.144 161.934C126.144 161.934 119.536 160.379 124.93 152.532C130.323 144.685 144.913 143.036 137.553 139.398C130.193 135.76 131.769 132.687 138.623 123.169C145.477 113.651 139.751 101.147 147.508 93.1841C155.266 85.2213 163.009 83.6447 166.031 84.0569C169.053 84.4692 183.932 88.0781 190.07 94.9921Z" fill="black"/>
  <path d="M182.283 124.442C183.717 124.442 184.879 123.578 184.879 122.511C184.879 121.445 183.717 120.58 182.283 120.58C180.85 120.58 179.688 121.445 179.688 122.511C179.688 123.578 180.85 124.442 182.283 124.442Z" fill="black" fill-opacity="0.15"/>
  <path fill-rule="evenodd" clip-rule="evenodd" d="M80.2863 194.053C80.2863 194.053 79.1223 190.321 76.4473 189.258C72.2034 187.558 69.7236 186.632 70.2586 183.045C70.7936 179.458 74.2061 176.536 75.6231 176.536C77.0401 176.536 75.2833 181.845 75.2833 181.845L88.0871 182.98C90.137 186.024 91.8119 189.305 93.0757 192.751L80.2863 194.053Z" fill="#A8511B"/>
  <path fill-rule="evenodd" clip-rule="evenodd" d="M252.637 232.883C252.637 232.883 257.047 230.467 259.469 229.903C261.891 229.339 263.2 226.757 265.05 224.421C266.901 222.085 268.427 221.477 271.861 222.049C275.295 222.62 272.642 229.758 269.923 231.624C267.205 233.49 257.148 239.146 257.148 239.146L252.637 232.883Z" fill="#A8511B"/>
  <path fill-rule="evenodd" clip-rule="evenodd" d="M252.059 230.879C252.059 230.879 259.361 230.843 262.13 233.772C264.899 236.701 267.856 242.234 267.856 242.234L275.172 238.545C275.172 238.545 269.562 226.561 263.532 226.482C257.503 226.402 256.216 226.822 256.216 226.822L252.059 230.879Z" fill="#A6D9C4"/>
  <path fill-rule="evenodd" clip-rule="evenodd" d="M256.216 237.475C256.216 237.475 256.664 235.117 260.676 234.141C264.689 233.165 266.402 232.478 267.595 231.841C268.788 231.205 271.29 231.443 268.651 233.693C266.012 235.942 262.144 238.827 262.144 238.827L257.886 241.106L256.216 237.475Z" fill="#A8511B"/>
  <path d="M184.886 116.58C185.669 116.58 186.304 115.946 186.304 115.163C186.304 114.38 185.669 113.745 184.886 113.745C184.103 113.745 183.469 114.38 183.469 115.163C183.469 115.946 184.103 116.58 184.886 116.58Z" fill="black"/>
  <path d="M187.04 110.874C186.057 110.327 184.935 110.079 183.813 110.16C182.69 110.24 181.616 110.647 180.721 111.33" stroke="black" stroke-miterlimit="10" stroke-linecap="round"/>
  <path d="M221.108 242.957L213.691 245.539" stroke="black" stroke-miterlimit="10"/>
  <path d="M111.952 242.234V260.192" stroke="black" stroke-miterlimit="10"/>
  <path d="M183.881 122.511L171.612 117.304L170.824 124.297L181.235 132.969" stroke="black" stroke-width="0.5" stroke-miterlimit="10" stroke-linecap="round"/>
  <path fill-rule="evenodd" clip-rule="evenodd" d="M190.648 122.511H183.469C183.469 122.511 184.018 130.061 180.707 132.477L183.881 135.449C183.881 135.449 186.195 135.731 186.975 135.037C187.756 134.343 191.472 123.849 191.472 123.849L190.648 122.511Z" fill="#B1D9F4"/>
  <path opacity="0.2" fill-rule="evenodd" clip-rule="evenodd" d="M110.615 209.501V211.772L125.884 220.979L128.183 240.73C128.183 240.73 128.667 224.595 126.05 211.128L110.615 209.501Z" fill="#231F20"/>
  <path opacity="0.2" fill-rule="evenodd" clip-rule="evenodd" d="M210.197 266.527L256.214 237.475L258.542 240.881C258.542 240.881 227.397 262.166 210.197 266.527Z" fill="#231F20"/>
  <path opacity="0.2" fill-rule="evenodd" clip-rule="evenodd" d="M256.216 237.475C256.216 237.475 256.664 235.117 260.676 234.141C264.689 233.165 266.402 232.478 267.595 231.841C268.788 231.205 271.29 231.443 268.651 233.693C266.012 235.942 262.144 238.827 262.144 238.827L257.886 241.106L256.216 237.475Z" fill="#231F20"/>
  <path d="M181.235 103.316C177.972 103.861 174.937 105.342 172.499 107.578C170.06 109.814 168.323 112.71 167.498 115.915C164.339 127.291 170.903 137.756 177.345 143.998C183.787 150.239 183.461 161.247 181.235 166.57C179.008 171.893 182.68 174.099 182.68 174.099" stroke="white" stroke-width="0.4" stroke-miterlimit="10" stroke-linecap="round"/>
  <path d="M144.63 120.884C141.182 126.894 136.49 130.662 142.837 138.964C149.185 147.267 142.281 155.15 142.114 159.15C141.948 163.149 138.254 174.207 143.358 180.123" stroke="white" stroke-width="0.4" stroke-miterlimit="10" stroke-linecap="round"/>
  <path d="M167.238 142.761C167.238 142.761 143.8 114.346 155.931 96.6919" stroke="white" stroke-width="0.4" stroke-miterlimit="10" stroke-linecap="round"/>
  <path d="M153.588 147.86C153.588 147.86 160.095 155.859 154.42 160.965C148.744 166.071 165.987 178.539 165.17 187.818" stroke="white" stroke-width="0.4" stroke-miterlimit="10" stroke-linecap="round"/>
</svg>
